<svg version="1.2" xmlns="http://www.w3.org/2000/svg" viewBox="0 0 622 457" width="622" height="457">
	<title>benefits-bg-svg</title>
	<defs>
		<radialGradient id="g1" cx="534.9" cy="283.2" r="583.9" gradientUnits="userSpaceOnUse">
			<stop offset="0" stop-color="#247abb"/>
			<stop offset=".9" stop-color="#02d1ea"/>
		</radialGradient>
	</defs>
	<style>
		.s0 { opacity: .1;fill: url(#g1) } 
		.s1 { fill: #d2eaff } 
		.s2 { fill: #d7d7ff } 
		.s3 { fill: #d4e4ff } 
		.s4 { fill: #bdc6f9 } 
		.s5 { fill: #8784ef } 
		.s6 { fill: #9aa3f4 } 
		.s7 { fill: none;stroke: #9aa3f4;stroke-width: 1.5 } 
		.s8 { fill: #002a88 } 
		.s9 { fill: #33497f } 
		.s10 { opacity: .7;fill: #b8fcff } 
		.s11 { opacity: .3;fill: #007adb } 
		.s12 { mix-blend-mode: multiply;fill: #fca70c } 
		.s13 { mix-blend-mode: multiply;fill: #007aff } 
		.s14 { mix-blend-mode: multiply;fill: #000000 } 
		.s15 { mix-blend-mode: multiply;fill: #d5dbda } 
		.s16 { mix-blend-mode: multiply;fill: #efefef } 
		.s17 { mix-blend-mode: multiply;fill: #7a7ae5 } 
		.s18 { mix-blend-mode: multiply;fill: #6affff } 
		.s19 { fill: #007adb } 
		.s20 { fill: #fca70c } 
		.s21 { fill: #007aff } 
		.s22 { fill: #d5dbda } 
		.s23 { fill: #efefef } 
		.s24 { fill: #6affff } 
		.s25 { fill: #9090f4 } 
		.s26 { fill: #ffbc3a } 
		.s27 { fill: #f9c110 } 
		.s28 { fill: #ffb9b0 } 
		.s29 { fill: #0ed0e9 } 
		.s30 { fill: #bbbbf2 } 
		.s31 { fill: none;stroke: #c4c4f7;stroke-linecap: round;stroke-linejoin: round;stroke-width: .8 } 
		.s32 { fill: #ed9c80 } 
		.s33 { fill: #38287c } 
		.s34 { mix-blend-mode: multiply;fill: #ce4a30 } 
		.s35 { opacity: .5;fill: none;stroke: #a4a4f7 } 
		.s36 { fill: #483a99 } 
		.s37 { opacity: .5;fill: #007adb } 
		.s38 { fill: #ffffff } 
		.s39 { fill: #f2a181 } 
		.s40 { fill: #5e5dbb } 
		.s41 { fill: #b4b4db } 
		.s42 { fill: #6960c4 } 
		.s43 { fill: #170d54 } 
		.s44 { fill: #ffbe9d } 
		.s45 { fill: #3b2e7a } 
		.s46 { opacity: .3;fill: #3939d3 } 
		.s47 { opacity: .5;fill: #007aff } 
	</style>
	<path id="Layer" class="s0" d="m29.2 352.8c-1.4-31.1 10.4-45.6 17.8-69 9-28.5 14.6-48.9-1.2-74.4-25.9-41.6-74.9-151.8 48.8-185.6 44.3-12.1 91 6.8 128.6 29.3 31.9 19.1 70.1 6.3 102.6 0.5 39.9-7.1 82.3-10.6 123.4-7 84.8 7.4 126.9 50.6 151.3 118.2 7.4 20.3 17.5 53.1-1 103.8-24.9 68.5-88.2 102.3-177 112-20.4 2.2-41 1.1-61.4 2.2-21.3 1.2-42.3 4.9-62.6 11-47.5 14.3-91.5 41.8-140.9 46-26.3 2.3-52.7-2.2-76.8-13-30-13.4-50-41.1-51.6-74z"/>
	<ellipse id="Layer" class="s1" cx="219.2" cy="370.5" rx="187.1" ry="12"/>
	<ellipse id="Layer" class="s1" cx="98.7" cy="385.2" rx="47.5" ry="7.5"/>
	<ellipse id="Layer" class="s1" cx="462.3" cy="386.8" rx="79.7" ry="5.9"/>
	<path id="Layer" class="s2" d="m85.7 288.2l2.9 43h-40.9l3-42.9z"/>
	<path id="Layer" fill-rule="evenodd" class="s3" d="m61.5 291.6q0.1 0.2 0.1 0.5 0 0.4-0.3 0.7-0.2 0.3-0.7 0.4-0.2 0.1-0.4 0.1-0.2 0-0.5-0.1-0.2-0.1-0.5-0.3-0.1-0.1-0.2-0.4-0.2-0.2-0.2-0.4c0.1-0.4 0.2-0.7 0.5-0.9 0.3-0.2 0.6-0.3 0.9-0.3 0.4 0 0.8 0.1 1 0.3q0.2 0.2 0.3 0.4zm-0.5 0.9q0.2-0.2 0.2-0.4-0.1-0.4-0.4-0.6-0.2-0.2-0.6-0.2-0.3 0-0.6 0.2-0.3 0.2-0.3 0.6 0 0.2 0.1 0.3 0.1 0.2 0.3 0.3 0.3 0.1 0.5 0.1 0.2 0 0.4-0.1 0.3 0 0.4-0.2z"/>
	<path id="Layer" fill-rule="evenodd" class="s3" d="m74.7 290.9q0.2 0.1 0.5 0.2 0.2 0.2 0.3 0.4 0.1 0.3 0.1 0.5 0 0.3-0.1 0.5-0.1 0.2-0.3 0.4-0.2 0.2-0.5 0.2-0.2 0.1-0.5 0.1-0.2 0-0.4 0-0.4-0.1-0.7-0.4-0.3-0.3-0.3-0.8 0-0.2 0.1-0.4 0.1-0.2 0.2-0.3c0.3-0.3 0.7-0.4 1.1-0.4q0.2-0.1 0.5 0zm0.4 1.4q0-0.1 0-0.3 0-0.3-0.3-0.5-0.3-0.2-0.6-0.2-0.2 0-0.4 0.1-0.2 0.1-0.4 0.2 0 0.1-0.1 0.2-0.1 0.1-0.1 0.2 0.1 0.3 0.2 0.5 0.2 0.1 0.4 0.2 0.2 0.1 0.4 0.1 0.2 0 0.5-0.1 0.1-0.1 0.2-0.2 0.1 0 0.2-0.2z"/>
	<path id="Layer" class="s3" d="m61.5 298.7c-2.3-2.6-1.7-6.5-1.7-6.7q0-0.1 0-0.2 0.1 0 0.1-0.1 0.1 0 0.2-0.1 0.1 0 0.2 0 0.1 0 0.2 0.1 0 0 0.1 0.1 0 0.1 0.1 0.2 0 0.1 0 0.2c0 0-0.5 3.6 1.5 5.9 1.1 1.2 2.6 1.8 4.9 1.7q3.5-0.1 5.2-2.1c1.9-2.3 1.4-5.5 1.4-5.6q0-0.1 0-0.2 0 0 0.1-0.1 0.1-0.1 0.1-0.1 0.1-0.1 0.2-0.1 0.1 0 0.2 0 0.1 0 0.1 0.1 0.1 0 0.2 0.1 0 0.1 0 0.2c0 0.1 0.5 3.7-1.6 6.2-1.3 1.6-3.2 2.4-5.8 2.5h-0.4q-3.5 0-5.3-2z"/>
	<path id="Layer" class="s4" d="m105 300.2l4.5 31.9-44.4 0.1 4.9-31.9z"/>
	<path id="Layer" fill-rule="evenodd" class="s5" d="m59.9 356.8c1.7 1.7 2.6 4 2.6 6.4q0 0.3 0 0.7c-0.2 2.3-1.2 4.4-2.9 5.9-1.7 1.5-3.8 2.4-6.1 2.4-0.2 0-0.5-0.1-0.7-0.1-1.8-0.1-3.4-0.8-4.8-1.8-1.4-1.1-2.4-2.6-3-4.2q-0.5-1.4-0.5-2.9c0-2.3 0.9-4.5 2.4-6.2 1.5-1.6 3.6-2.6 5.9-2.8 0.2-0.1 0.5-0.1 0.7-0.1 2.4 0 4.7 1 6.4 2.7zm-8.7 9.8q0.7 0.5 1.6 0.7 0.3 0 0.7 0c0.9 0 1.8-0.2 2.5-0.8 0.7-0.5 1.2-1.2 1.5-2.1q0.2-0.6 0.2-1.2c0-1.1-0.4-2.2-1.2-3-0.8-0.8-1.9-1.2-3-1.2q-0.4 0-0.7 0c-1 0.2-1.9 0.7-2.5 1.5-0.6 0.7-1 1.7-1 2.7 0 0.7 0.3 1.5 0.7 2.1q0.4 0.8 1.2 1.3z"/>
	<path id="Layer" fill-rule="evenodd" class="s6" d="m58.7 357c1.5 1.7 2.3 3.9 2.3 6.1q0 0.5 0 1c-0.2 2-1.2 4-2.7 5.5-1.5 1.4-3.4 2.3-5.5 2.5-0.2 0-0.5 0-0.8 0-1.8 0-3.6-0.5-5.1-1.6-1.5-1-2.7-2.5-3.3-4.2q-0.6-1.5-0.6-3.1c0-2.4 1-4.7 2.7-6.4 1.7-1.7 3.9-2.7 6.3-2.7 0.3 0 0.5 0.1 0.8 0.1 2.2 0.2 4.3 1.2 5.9 2.8zm-5.9 10.3c0.7-0.2 1.4-0.5 1.9-1 0.6-0.4 1-1 1.3-1.7q0.3-0.7 0.3-1.5c-0.1-0.9-0.4-1.9-1-2.6-0.7-0.8-1.5-1.3-2.5-1.5q-0.4 0-0.7 0c-1.2 0-2.2 0.4-3 1.2-0.8 0.8-1.2 1.8-1.2 3 0 0.8 0.2 1.6 0.7 2.3q0.6 0.9 1.5 1.4 0.9 0.4 1.9 0.4 0.4 0 0.8 0z"/>
	<path id="Layer" fill-rule="evenodd" class="s5" d="m113.4 363.2c0 2.2-0.8 4.3-2.3 6-0.9 0.9-1.9 1.7-3 2.2-1.2 0.5-2.4 0.8-3.7 0.8-0.3 0-0.5-0.1-0.7-0.1-2.3-0.2-4.4-1.2-5.9-2.8-1.6-1.7-2.4-3.9-2.4-6.1q0-0.9 0.1-1.7c0.4-2 1.4-3.7 2.9-5 1.4-1.4 3.3-2.2 5.3-2.3q0.3-0.1 0.7-0.1c1.5 0 3 0.4 4.3 1.1 2.1 1.2 3.7 3.1 4.3 5.4q0.4 1.2 0.4 2.6zm-5.5-2.3c-0.4-0.6-0.9-1.1-1.5-1.4q-1-0.5-2-0.5-0.4 0-0.8 0.1-0.9 0.1-1.7 0.7-0.8 0.6-1.2 1.4-0.5 0.9-0.5 2c0 1 0.4 1.9 1 2.7 0.6 0.7 1.5 1.2 2.4 1.4q0.4 0.1 0.8 0.1c1.1 0 2.2-0.5 3-1.3 0.7-0.8 1.2-1.8 1.2-2.9 0-0.9-0.3-1.7-0.7-2.3z"/>
	<path id="Layer" fill-rule="evenodd" class="s6" d="m111.9 363.1c0 1.6-0.4 3.1-1.1 4.4-0.7 1.3-1.8 2.4-3 3.2-1.2 0.8-2.7 1.3-4.1 1.4q-0.4 0-0.8 0c-1.2 0-2.3-0.2-3.4-0.6-1.1-0.5-2.1-1.2-3-2-0.8-0.8-1.5-1.8-1.9-2.9-0.5-1.1-0.7-2.3-0.7-3.5q0-0.8 0.1-1.5c0.4-2.1 1.5-4 3.1-5.4 1.7-1.3 3.7-2.1 5.8-2.1 0.3 0 0.5 0.1 0.8 0.1 1.9 0.1 3.7 0.9 5.2 2.2 1.3 1.1 2.2 2.6 2.7 4.3q0.3 1.2 0.3 2.4zm-8.3 4.1c1-0.1 1.9-0.6 2.5-1.4 0.6-0.7 1-1.7 1-2.7 0-0.8-0.2-1.5-0.7-2.2q-0.4-0.8-1.2-1.2-0.7-0.5-1.6-0.7-0.3-0.1-0.7-0.1c-0.8 0-1.5 0.3-2.2 0.7-0.7 0.4-1.2 1-1.5 1.7q-0.5 0.8-0.5 1.8c0 1.1 0.5 2.2 1.2 3 0.8 0.8 1.9 1.2 3 1.2q0.4 0 0.7-0.1z"/>
	<path id="Layer" class="s7" d="m122 283.2l16.3-26.3c0.8-1.1 1.8-2.1 3-2.8 1.2-0.7 2.6-1 4-1h27.1"/>
	<path id="Layer" class="s7" d="m45 329.9c-1.2-1-2-2.4-2.2-4l-6.3-39c-0.1-0.9-0.1-1.9 0.2-2.8 0.2-0.9 0.7-1.8 1.3-2.5 0.6-0.7 1.4-1.3 2.2-1.7 0.9-0.4 1.8-0.6 2.8-0.6h73c0.9 0 1.9 0.2 2.7 0.6 0.9 0.4 1.6 1 2.3 1.7 0.6 0.7 1 1.6 1.3 2.5 0.2 0.9 0.3 1.9 0.1 2.8l-6.2 39.1c-0.2 1.5-1 2.9-2.2 3.9-1.2 1-2.7 1.6-4.3 1.6h-60.4c-1.6 0-3.1-0.6-4.3-1.6z"/>
	<path id="Layer" class="s7" d="m79.5 279.3v52.2"/>
	<path id="Layer" class="s7" d="m119.5 305.4h-80"/>
	<path id="Layer" class="s7" d="m103.4 279.3l-5.2 52.2"/>
	<path id="Layer" class="s7" d="m56.8 279.3l4.8 52.2"/>
	<path id="Layer" class="s7" d="m114.8 329.1l9.8 14.6c0.6 0.9 0.9 1.9 1 3 0 1.1-0.2 2.1-0.7 3.1-0.5 1-1.3 1.8-2.2 2.3-1 0.6-2 0.9-3.1 0.9h-80.1"/>
	<path id="Layer" class="s8" d="m325.3 358.3h-82.9v-22.3h82.9z"/>
	<rect id="Layer" class="s9" x="140.5" y="136.4" width="287.5" height="206.9" rx="4.9"></rect>
	<rect id="Layer" class="s10" x="148.5" y="144" width="270.6" height="179.5" rx="3"></rect>
	<path id="Layer" class="s9" d="m210.6 356.4h146.5q0.8 0 1.5 0.3 0.7 0.3 1.2 0.8 0.6 0.6 0.9 1.3 0.3 0.7 0.3 1.4v10.3h-154.3v-10.3q0-0.7 0.3-1.4 0.3-0.7 0.8-1.3 0.6-0.5 1.3-0.8 0.7-0.3 1.5-0.3z"/>
	<g id="Layer" style="opacity: .3">
		<rect id="Layer" class="s11" x="213.2" y="156.4" width="189.3" height="127.3" rx="8.3"></rect>
	</g>
	<g id="Layer" style="opacity: .3">
		<g id="Layer" style="opacity: .3">
			<path id="Layer" class="s12" d="m239.4 270h-8.2v-20.7h8.2z"/>
		</g>
		<g id="Layer" style="opacity: .3">
			<path id="Layer" class="s13" d="m258 270h-8.3v-38.8h8.3z"/>
		</g>
		<g id="Layer" style="opacity: .3">
			<path id="Layer" class="s12" d="m276.6 270h-8.3v-34.8h8.3z"/>
		</g>
		<g id="Layer" style="opacity: .3">
			<path id="Layer" class="s13" d="m295.2 270h-8.3v-54.5h8.3z"/>
		</g>
		<g id="Layer" style="opacity: .1">
			<g id="Layer" style="opacity: .3">
				<path id="Layer" class="s14" d="m253.5 270h-3.8v-38.8h3.8z"/>
			</g>
		</g>
		<g id="Layer" style="opacity: .1">
			<g id="Layer" style="opacity: .3">
				<path id="Layer" class="s14" d="m234.9 270h-3.7v-20.7h3.7z"/>
			</g>
		</g>
		<g id="Layer" style="opacity: .6">
			<g id="Layer" style="opacity: .3">
				<path id="Layer" class="s14" d="m290.7 270h-3.8v-54.5h3.8z"/>
			</g>
		</g>
		<g id="Layer" style="opacity: .1">
			<g id="Layer" style="opacity: .3">
				<path id="Layer" class="s14" d="m272.1 270h-3.8v-34.8h3.8z"/>
			</g>
		</g>
		<g id="Layer" style="opacity: .3">
			<path id="Layer" class="s15" d="m299.5 275.7h-73.8v-78.5h1.1v77.4h72.7z"/>
		</g>
		<g id="Layer" style="opacity: .3">
			<path id="Layer" class="s15" d="m233.3 239.6l-0.8-0.8 19.4-17.3 17.8 3.9 19.4-21.6 0.8 0.8-19.8 22-17.9-3.9z"/>
		</g>
		<g id="Layer" style="opacity: .3">
			<path id="Layer" class="s15" d="m291.5 207.7l-5.5-5.2 7-1.9z"/>
		</g>
		<g id="Layer" style="opacity: .3">
			<path id="Layer" class="s13" d="m312.2 253.5h-5.7v-5.6h5.7z"/>
		</g>
		<g id="Layer" style="opacity: .3">
			<path id="Layer" class="s12" d="m312.2 263.5h-5.7v-5.7h5.7z"/>
		</g>
		<g id="Layer" style="opacity: .3">
			<path id="Layer" class="s16" d="m331.7 263.5h-18v-3.3h18z"/>
		</g>
		<g id="Layer" style="opacity: .3">
			<path id="Layer" class="s16" d="m331.7 253.5h-18v-3.2h18z"/>
		</g>
		<g id="Layer" style="opacity: .3">
			<path id="Layer" class="s13" d="m345.5 253.5h-5.7v-5.6h5.7z"/>
		</g>
		<g id="Layer" style="opacity: .3">
			<path id="Layer" class="s12" d="m345.5 263.5h-5.7v-5.7h5.7z"/>
		</g>
		<g id="Layer" style="opacity: .3">
			<path id="Layer" class="s16" d="m365 263.5h-17.9v-3.3h17.9z"/>
		</g>
		<g id="Layer" style="opacity: .3">
			<path id="Layer" class="s16" d="m365 253.5h-17.9v-3.2h17.9z"/>
		</g>
		<g id="Layer" style="opacity: .3">
			<path id="Layer" class="s13" d="m375.5 253.5h-5.7v-5.6h5.7z"/>
		</g>
		<g id="Layer" style="opacity: .3">
			<path id="Layer" class="s12" d="m375.5 263.5h-5.7v-5.7h5.7z"/>
		</g>
		<g id="Layer" style="opacity: .3">
			<path id="Layer" class="s16" d="m388.9 263.5h-11.9v-3.3h11.9z"/>
		</g>
		<g id="Layer" style="opacity: .3">
			<path id="Layer" class="s16" d="m388.9 253.5h-11.9v-3.2h11.9z"/>
		</g>
		<g id="Layer" style="opacity: .3">
			<path id="Layer" class="s16" d="m388.9 195.2h-81.3v-1.4h81.3z"/>
		</g>
		<g id="Layer" style="opacity: .3">
			<path id="Layer" class="s16" d="m388.9 179h-163.2v-3.4h163.2z"/>
		</g>
		<g id="Layer" style="opacity: .3">
			<path id="Layer" class="s16" d="m388.9 199.8h-81.6v-1.4h81.6z"/>
		</g>
		<g id="Layer" style="opacity: .3">
			<path id="Layer" class="s16" d="m388.9 190.6h-81.6v-1.4h81.6z"/>
		</g>
		<g id="Layer" style="opacity: .3">
			<path id="Layer" class="s16" d="m388.9 204.4h-81.6v-1.4h81.6z"/>
		</g>
		<g id="Layer" style="opacity: .3">
			<path id="Layer" class="s16" d="m388.9 209h-81.6v-1.4h81.6z"/>
		</g>
		<g id="Layer" style="opacity: .3">
			<path id="Layer" class="s16" d="m388.9 213.6h-81.6v-1.5h81.6z"/>
		</g>
		<g id="Layer" style="opacity: .3">
			<path id="Layer" class="s16" d="m388.9 218.2h-81.6v-1.5h81.6z"/>
		</g>
		<g id="Layer" style="opacity: .3">
			<path id="Layer" class="s16" d="m388.9 222.8h-81.6v-1.5h81.6z"/>
		</g>
		<g id="Layer" style="opacity: .3">
			<path id="Layer" class="s16" d="m388.9 227.4h-81.6v-1.5h81.6z"/>
		</g>
		<g id="Layer" style="opacity: .3">
			<path id="Layer" class="s16" d="m388.9 232h-71.6v-1.5h71.6z"/>
		</g>
		<g id="Layer" style="opacity: .3">
			<path id="Layer" class="s17" d="m400.1 158.8c1.5 1.6 2.4 3.7 2.4 5.9v7.2h-189.3v-7.2c0-2.2 0.8-4.3 2.4-5.9 1.6-1.5 3.7-2.4 5.9-2.4h172.7c2.2 0 4.3 0.9 5.9 2.4z"/>
		</g>
		<g id="Layer" style="opacity: .3">
			<path id="Layer" class="s18" d="m378.2 164.4c0 0.7-0.3 1.3-0.7 1.7-0.5 0.5-1.1 0.7-1.7 0.7-0.7 0-1.3-0.2-1.7-0.7-0.5-0.4-0.7-1-0.7-1.7 0-0.6 0.2-1.2 0.7-1.7 0.4-0.4 1-0.6 1.7-0.6 0.6 0 1.2 0.2 1.6 0.6 0.5 0.5 0.8 1.1 0.8 1.7z"/>
		</g>
		<g id="Layer" style="opacity: .3">
			<circle id="Layer" class="s18" cx="385.5" cy="164.4" r="2.4"/>
		</g>
		<g id="Layer" style="opacity: .3">
			<circle id="Layer" class="s18" cx="395.3" cy="164.4" r="2.4"/>
		</g>
	</g>
	<g id="Layer" style="opacity: .5">
		<rect id="Layer" class="s18" x="162.9" y="184.5" width="189.3" height="127.3" rx="8.3"></rect>
	</g>
	<rect id="Layer" class="s19" x="166.7" y="179.6" width="189.3" height="127.3" rx="8.3"></rect>
	<path id="Layer" class="s20" d="m193 293.2h-8.3v-20.7h8.3z"/>
	<path id="Layer" class="s21" d="m211.5 293.2h-8.2v-38.8h8.2z"/>
	<path id="Layer" class="s20" d="m230.1 293.2h-8.2v-34.8h8.2z"/>
	<path id="Layer" class="s21" d="m248.7 293.2h-8.2v-54.5h8.2z"/>
	<g id="Layer" style="opacity: .1">
		<g id="Layer" style="opacity: .3">
			<path id="Layer" class="s14" d="m207.1 293.2h-3.8v-38.8h3.8z"/>
		</g>
	</g>
	<g id="Layer" style="opacity: .1">
		<g id="Layer" style="opacity: .3">
			<path id="Layer" class="s14" d="m188.5 293.2h-3.8v-20.7h3.8z"/>
		</g>
	</g>
	<g id="Layer" style="opacity: .6">
		<g id="Layer" style="opacity: .3">
			<path id="Layer" class="s14" d="m244.2 293.2h-3.7v-54.5h3.7z"/>
		</g>
	</g>
	<g id="Layer" style="opacity: .1">
		<g id="Layer" style="opacity: .3">
			<path id="Layer" class="s14" d="m225.7 293.2h-3.8v-34.8h3.8z"/>
		</g>
	</g>
	<path id="Layer" class="s22" d="m253.1 298.9h-73.8v-71.5h1.1v70.4h72.7z"/>
	<path id="Layer" class="s22" d="m186.8 262.8l-0.7-0.8 19.3-17.3 17.9 3.9 19.4-21.6 0.8 0.7-19.8 22.1-18-3.9z"/>
	<path id="Layer" class="s22" d="m245 230.9l-5.5-5.2 7.1-1.9z"/>
	<path id="Layer" class="s21" d="m265.7 276.7h-5.6v-5.6h5.6z"/>
	<path id="Layer" class="s20" d="m265.7 286.7h-5.6v-5.7h5.6z"/>
	<path id="Layer" class="s23" d="m285.2 286.7h-17.9v-3.3h17.9z"/>
	<path id="Layer" class="s23" d="m285.2 276.7h-17.9v-3.2h17.9z"/>
	<path id="Layer" class="s21" d="m299 276.7h-5.6v-5.6h5.6z"/>
	<path id="Layer" class="s20" d="m299 286.7h-5.6v-5.7h5.6z"/>
	<path id="Layer" class="s23" d="m318.6 286.7h-18v-3.3h18z"/>
	<path id="Layer" class="s23" d="m318.6 276.7h-18v-3.2h18z"/>
	<path id="Layer" class="s21" d="m329 276.7h-5.6v-5.6h5.6z"/>
	<path id="Layer" class="s20" d="m329 286.7h-5.6v-5.7h5.6z"/>
	<path id="Layer" class="s23" d="m342.4 286.7h-11.8v-3.3h11.8z"/>
	<path id="Layer" class="s23" d="m342.4 276.7h-11.8v-3.2h11.8z"/>
	<path id="Layer" class="s23" d="m342.4 218.4h-81.3v-1.4h81.3z"/>
	<path id="Layer" class="s23" d="m342.4 202.2h-163.1v-3.4h163.1z"/>
	<path id="Layer" class="s23" d="m342.4 223h-81.5v-1.4h81.5z"/>
	<path id="Layer" class="s23" d="m342.4 213.8h-81.5v-1.4h81.5z"/>
	<path id="Layer" class="s23" d="m342.4 227.6h-81.5v-1.5h81.5z"/>
	<path id="Layer" class="s23" d="m342.4 232.2h-81.5v-1.5h81.5z"/>
	<path id="Layer" class="s23" d="m342.4 236.8h-81.5v-1.5h81.5z"/>
	<path id="Layer" class="s23" d="m342.4 241.4h-81.5v-1.5h81.5z"/>
	<path id="Layer" class="s23" d="m342.4 246h-81.5v-1.5h81.5z"/>
	<path id="Layer" class="s23" d="m342.4 250.6h-81.5v-1.5h81.5z"/>
	<path id="Layer" class="s23" d="m342.4 255.2h-71.5v-1.5h71.5z"/>
	<path id="Layer" class="s21" d="m353.6 182c1.6 1.6 2.5 3.7 2.5 5.9v7.2h-189.4v-7.2q0-1.7 0.6-3.2 0.7-1.5 1.8-2.7c0.8-0.8 1.7-1.4 2.7-1.8 1-0.4 2.1-0.6 3.2-0.6h172.8c2.2 0 4.3 0.8 5.8 2.4z"/>
	<path id="Layer" class="s24" d="m331.7 187.6c0 0.7-0.3 1.3-0.7 1.7-0.5 0.5-1.1 0.7-1.7 0.7-0.6 0-1.2-0.2-1.7-0.7-0.4-0.4-0.7-1-0.7-1.7 0-0.6 0.3-1.2 0.7-1.7 0.5-0.4 1.1-0.7 1.7-0.7 0.6 0 1.2 0.3 1.7 0.7 0.4 0.5 0.7 1.1 0.7 1.7z"/>
	<path id="Layer" class="s24" d="m341.4 187.6c0 0.7-0.2 1.3-0.7 1.7-0.4 0.5-1 0.7-1.6 0.7-0.7 0-1.3-0.2-1.7-0.7-0.5-0.4-0.7-1-0.7-1.7 0-0.6 0.2-1.2 0.7-1.7 0.4-0.4 1-0.7 1.7-0.7 0.6 0 1.2 0.3 1.6 0.7 0.5 0.5 0.8 1.1 0.8 1.7z"/>
	<path id="Layer" class="s24" d="m351.2 187.6c0 0.7-0.3 1.3-0.7 1.7-0.4 0.5-1.1 0.7-1.7 0.7-0.6 0-1.2-0.2-1.7-0.7-0.4-0.4-0.7-1-0.7-1.7 0-0.6 0.3-1.2 0.7-1.7 0.5-0.4 1.1-0.7 1.7-0.7 0.6 0 1.3 0.3 1.7 0.7 0.4 0.5 0.7 1.1 0.7 1.7z"/>
	<path id="Layer" class="s9" d="m417.7 137.8c-0.2 0.1-0.8 2.4-5.7 3.9-3.7 1.1-6.4 0.2-12.4 0.7-0.6 0-1.1 0.1-1.5 0.5q-0.3 0.4-0.4 0.9c-1.4 4.7-2.4 9.6-2.7 14.5-0.3 2.7-0.3 5.5-1 8.1-0.6 2.3-1.6 4.4-2.5 6.5-2.3 5.1-6.9 20.3-6.9 20.3l-2.4 0.2v2.4c0.5 0.8 0.8 1.7 0.9 2.6 0 1.3 0 2.4 0 2.4l-4.2 1-0.5-0.7q-1.1 0.9-2.5 1.4-1.9 0.4-4 0.3c-3.4-0.2-5.8-1.3-5.9-1.8-0.5-2.1 4.1-1.8 5-1.9 1.1-0.1 2.1-0.5 3-1.1 0.9-0.6 1.6-1.5 2.1-2.5 0.3-0.8 4.5-24.5 5.2-36.2-1.9 9.4-4.5 18.7-7.8 27.7q0.2 0.3 0.3 0.6c0.3 1.3 0.8 3.8 0.8 3.8l-4 1.7-0.1-0.1q-0.7 0.2-1.3 0.3-0.7 0.6-1.5 1-1.8 0.7-3.8 1c-3.5 0.4-6-0.3-6.2-0.7q-0.2-0.4-0.1-0.8 0.1-0.3 0.4-0.6-0.1-0.2 0-0.4c3.4-0.8 6.9-2.4 8.7-5.3v-0.1c0.2-1-0.1-1.2 0.5-1.2h0.1c0.8-2 0.8-4.3 0.8-6.5q-0.3-21.6-0.8-43.1h44.4c2 0 4.1 0.4 6 1.2z"/>
	<path id="Layer" class="s9" d="m426.8 236.2c-6.8 1.9-13.9 3.9-21 3.4-1.9-0.2-5.9-0.1-8.1-1.6-8.9-5.8 4.1-20.2 7.4-24.5 7.7-10.1 15.3-19.1 22.9-29.1v51.4q-0.5 0.2-1.2 0.4z"/>
	<path id="Layer" fill-rule="evenodd" class="s9" d="m428 246.9v43.2l-0.1 0.6-0.1 0.3-1.3 5.1-0.3 1.3-0.4 1.5-10.7 41.5-0.7 2.9h-7.2v-19.9l0.1-54.2-4.8-13.5-1.4-4q0-0.2 0-0.3l-0.1-0.1c-0.3-0.8 0.6-1.8 1.5-2.3q0.5-0.2 1-0.2l7.2-0.6-0.1-0.2 3.5-0.3c-0.4-1-0.8-2.3-1-2.8-0.6-1.6 0.3-3 2.1-3.2 0.8 0 1.6 0.2 2.3 0.6 0.7 0.3 1.2 0.9 1.6 1.6q0.2 0.2 0.3 0.5l0.9 2.6 0.1 0.2 1.4-0.1 1.9-0.1 0.1 0.2zm-13-3.6q-0.3 0.1-0.5 0.4-0.2 0.3-0.2 0.6 0 0.3 0.1 0.6c0.2 0.5 0.5 0.9 0.9 1.1 0.5 0.3 1 0.4 1.5 0.4q0.3 0 0.6-0.2 0.3-0.1 0.4-0.4 0.2-0.2 0.2-0.6 0.1-0.3-0.1-0.6c-0.1-0.5-0.5-0.8-0.9-1.1-0.4-0.3-0.9-0.4-1.4-0.4q-0.3 0-0.6 0.2z"/>
	<path id="Layer" class="s9" d="m165.2 213.4c0 0.7-1.8 2.5-4.1 4.1-1.2 0.8-1.7 2.3-2 2.9-0.4 0.9 4.4-0.7 4.8 1.1 0.1 0.2-0.4 2.2-0.4 2.5 0.1 0.7 1 1.3 0.4 2.6-1.4 3.1-5.6 7.3-10.7 5.3-0.1 0.1-6.1 3.8-12.7 7.8v-8.4c3.3-1.3 6.7-2.7 9.8-4.1 2.3-1.1 3.2-2 4-3.6 0.8-1.7 2.7-5.4 4.3-7.2 0.5-0.6 6.6-4.1 6.6-3z"/>
	<rect id="Layer" class="s10" x="415.1" y="259.1" width="111.8" height="129.3" rx="3.6"></rect>
	<rect id="Layer" class="s25" x="425.4" y="272.6" width="94.5" height="26.6" rx=".9"></rect>
	<rect id="Layer" class="s25" x="425.4" y="308.6" width="24.3" height="16.9" rx=".9"></rect>
	<rect id="Layer" class="s25" x="460.6" y="308.6" width="24.3" height="16.9" rx=".9"></rect>
	<rect id="Layer" class="s25" x="495.7" y="308.6" width="24.3" height="16.9" rx=".9"></rect>
	<rect id="Layer" class="s25" x="425.4" y="335.7" width="24.3" height="16.9" rx=".9"></rect>
	<rect id="Layer" class="s25" x="460.6" y="335.7" width="24.3" height="16.9" rx=".9"></rect>
	<rect id="Layer" class="s25" x="425.4" y="362.8" width="24.3" height="16.9" rx=".9"></rect>
	<rect id="Layer" class="s25" x="460.6" y="362.8" width="24.3" height="16.9" rx=".9"></rect>
	<rect id="Layer" class="s25" x="495.7" y="335.7" width="24.3" height="44" rx=".9"></rect>
	<path id="Layer" class="s3" d="m423.7 273.8c0-0.8 0.3-1.5 0.9-2.1 0.5-0.5 1.3-0.8 2.1-0.8h88.7c0.7 0 1.5 0.3 2 0.8 0.6 0.6 0.9 1.3 0.9 2.1v20.7c0 0.8-0.3 1.5-0.9 2.1-0.5 0.5-1.3 0.8-2 0.8h-88.8z"/>
	<rect id="Layer" class="s3" x="423.7" y="306.9" width="24.3" height="16.9" rx=".9"></rect>
	<rect id="Layer" class="s3" x="458.8" y="306.9" width="24.3" height="16.9" rx=".9"></rect>
	<rect id="Layer" class="s3" x="494" y="306.9" width="24.3" height="16.9" rx=".9"></rect>
	<rect id="Layer" class="s3" x="423.7" y="333.9" width="24.3" height="16.9" rx=".9"></rect>
	<rect id="Layer" class="s3" x="458.8" y="333.9" width="24.3" height="16.9" rx=".9"></rect>
	<rect id="Layer" class="s3" x="423.7" y="361" width="24.3" height="16.9" rx=".9"></rect>
	<rect id="Layer" class="s3" x="458.8" y="361" width="24.3" height="16.9" rx=".9"></rect>
	<rect id="Layer" class="s26" x="494" y="333.9" width="24.3" height="44" rx=".9"></rect>
	<path id="Layer" class="s27" d="m495.9 377.7c-0.6-0.2-1-0.6-1.4-1.1-0.3-0.5-0.5-1.1-0.5-1.7v-38c0-0.8 0.3-1.6 0.8-2.1 0.6-0.6 1.3-0.9 2.1-0.9h18.5c0.6 0 1.1 0.2 1.6 0.6 0.5 0.3 0.9 0.8 1.1 1.3q-0.5-0.2-1-0.2h-18.5c-0.8 0-1.5 0.4-2.1 0.9-0.5 0.6-0.8 1.3-0.8 2.1v38.1q0 0.5 0.2 1z"/>
	<path id="Layer" class="s9" d="m415.1 273.9l13.3-1.3 37 17.3 7.3 25.3 17.1 73.1h-6.6c0 0-17.3-33.1-20.5-39.5-3.2-6.4-11-44.5-11-44.5l-10.3 28.5 0.8 55.5h-7.3c0 0-5.3-44-5.2-50.4 0-6.4 0.9-40.5 0.9-40.5h-12.5l-3-7.9z"/>
	<path id="Layer" class="s26" d="m210.8 317.8l5.5 60.6h-57.3l5.8-60.5z"/>
	<path id="Layer" fill-rule="evenodd" class="s9" d="m178.9 322.7q0.2 0.3 0.2 0.7 0 0 0 0.1-0.1 0.6-0.5 1.1-0.4 0.4-1 0.5-0.3 0.1-0.6 0.1-0.5 0-0.8-0.1-0.6-0.2-1-0.6-0.3-0.5-0.4-1 0-0.1 0-0.1c0-1 1-1.8 2.2-1.8 0.5 0 1 0.2 1.5 0.5q0.3 0.2 0.4 0.6zm-0.9 1.5q0.2-0.2 0.3-0.3 0.1-0.2 0.1-0.4v-0.1c0-0.6-0.6-1.1-1.4-1.1-0.9 0-1.5 0.5-1.5 1.1v0.1q0 0.3 0.2 0.5 0.2 0.2 0.5 0.4 0.4 0.1 0.8 0.1 0.3 0 0.6-0.1 0.2 0 0.4-0.2z"/>
	<path id="Layer" fill-rule="evenodd" class="s9" d="m200.5 323.4q0 0 0 0.1-0.1 0.3-0.2 0.6-0.2 0.3-0.5 0.6-0.3 0.2-0.7 0.4-0.4 0.1-0.8 0.1-0.3 0-0.6-0.1-0.5-0.1-0.9-0.4-0.3-0.3-0.4-0.6-0.2-0.3-0.2-0.6 0-0.1 0-0.1 0-0.4 0.1-0.7 0.1-0.3 0.4-0.5 0.3-0.3 0.7-0.5 0.5-0.2 0.9-0.2c1.2 0 2.2 0.8 2.2 1.9zm-1.1 0.7q0.3-0.2 0.4-0.6 0-0.1 0-0.1c0-0.6-0.7-1.2-1.5-1.2-0.4 0-0.8 0.2-1.1 0.5q-0.2 0.1-0.2 0.3-0.1 0.2-0.1 0.4 0 0 0 0.1 0 0.2 0.1 0.4 0.1 0.1 0.3 0.3 0.2 0.1 0.4 0.2 0.3 0.1 0.6 0.1 0.4 0 0.8-0.2 0.1-0.1 0.3-0.2z"/>
	<path id="Layer" class="s9" d="m178.9 333.5c-3.5-3.9-2.6-9.9-2.6-10.2q0-0.3 0.3-0.5 0.2-0.1 0.5-0.1 0.1 0 0.2 0.1 0.2 0.1 0.2 0.2 0.1 0.1 0.2 0.2 0 0.2 0 0.3c0 0.1-0.8 5.7 2.3 9.1q2.5 2.8 7.6 2.6c3.5-0.1 6.2-1.2 7.9-3.2 2.9-3.5 2.2-8.5 2.2-8.5q0-0.2 0-0.3 0-0.1 0.1-0.3 0.1-0.1 0.2-0.1 0.1-0.1 0.3-0.1 0.1-0.1 0.2 0 0.2 0 0.3 0.1 0.1 0.1 0.2 0.2 0 0.1 0.1 0.3c0 0.2 0.7 5.6-2.5 9.6-2 2.3-5 3.6-9 3.7q-0.3 0-0.6 0c-3.5 0-6.2-1-8.1-3.1z"/>
	<path id="Layer" class="s8" d="m108.4 181.5c2.2 3.8 0.3 9.1 2.5 12.9 0.9 1.5 2.4 2.7 2.9 4.4 0.1 0.8 0.1 1.5-0.1 2.2-0.3 0.7-0.7 1.4-1.3 1.8-0.6 0.5-1.3 0.8-2.1 0.8-0.7 0.1-1.4 0-2.1-0.4q-0.4-0.2-0.9-0.4c-1.1-0.3-2.1 0.6-3 1.3q-0.9 0.6-2 0.8-1 0.2-2.1-0.1c-1.7-0.6-2.8-2.3-3.3-4-1.6-4.8-0.5-10.1 1-15 0.7-2.4 1.8-5.1 4.2-5.9z"/>
	<path id="Layer" class="s28" d="m160 222.3c0 0.5 0.8 1 0.3 2.1-1.2 2.5-5 6-9.5 4.4-0.2 0-24.8 14.3-26.7 14.3-1.9 0-14.8-12.3-19.1-27.4-1-3.6-0.6-7.9 2.8-9.7 0 0 2.8 0.7 4.7 4.2 2.8 5.2 11.2 22.8 13 23.4 2.3-1.5 13.6-4.9 22.7-8.8 2.1-0.8 2.9-1.6 3.6-2.9 0.7-1.3 2.3-4.5 3.8-5.9 0.5-0.6 5.9-3.4 5.9-2.5 0 0.5-1.6 2-3.7 3.3-0.8 0.6-1.4 1.5-1.8 2.5-0.3 0.7 3.9-0.6 4.3 0.9 0 0.2-0.4 1.8-0.3 2.1z"/>
	<path id="Layer" class="s29" d="m106.8 205.6c1.6 0.4 3 1.1 4.3 2 1.3 1 2.3 2.3 3.1 3.7q0.5 1.1 1 2.3c1.3 3.3 3.1 6.4 4.4 9.7-1.8 1.4-4 2.1-5.8 2.8-1.7 0.6-3.5 0.9-5.4 0.7q-0.4 0-0.9-0.2-0.5-0.3-0.9-0.8-0.9-1-1.7-2-0.7-0.8-1.1-1.9c-0.2-0.9 0-1.9 0.3-2.9z"/>
	<path id="Layer" class="s29" d="m116.2 225.2q-1.2 0.5-2.4 0.9c-1.6 0.6-3.3 0.8-5 0.7l0.4-7q-0.6-2-0.7-4 0-0.6 0.2-1.1 0.2-0.2 0.4-0.3 0.3-0.1 0.5 0 0.3 0.1 0.4 0.3c2.7 3.1 5.4 6.5 6.2 10.5z"/>
	<path id="Layer" class="s28" d="m99.1 198.6c0 0-0.1 4.4 0.6 4.7q1.4 0.6 2.9 0.9v9.1l-12.2-1.8-8.3-4.7c0 0 8.7-2.9 8.8-3.7 0-0.9-0.5-5.8-0.5-5.8z"/>
	<path id="Layer" class="s28" d="m80.8 329v-0.1q0.2-0.8 0.4-1.6l0.1-0.2q0.6-2.5 1.6-5 0.3-0.7 0.6-1.4 0.7-1.7 1.7-3.3c3.6-5.9 10.1-5.6 9.7 1.7q-0.1 0.9-0.3 1.8c-1.8 9.6-12.1 59.6-12.1 59.6 0 0-4.4-0.5-4.5-0.5 0.7-11.9-0.9-33.6 2.4-49.4q0.2-0.8 0.4-1.6z"/>
	<path id="Layer" class="s28" d="m99.9 274c-0.1 1.3-0.8 7.5-1.6 14.8-0.7 6.2-1.5 13.1-2.1 18.6-0.5 4.1-0.8 7.4-0.9 9q-0.1 1.3-0.4 2.6v0.1c-1.6 7.2-6.6 7.6-9.6 5.9q-0.6-0.3-1.1-0.8c-0.7-0.5-1.1-1.3-1.3-2.1-0.2-1.5-0.4-3.5-0.6-5.9q0 0 0 0v-0.1c-0.3-4.7-0.7-10.7-0.9-16.6-0.4-7.2-0.6-14.1-0.6-18q0-0.4-0.1-0.7c0-12 11-19.7 17.9-15.9q0.1 0 0.2 0.1l0.3 0.1c0.8 0.6 1 2.3 1 4.4 0 1.5-0.1 3.1-0.2 4.5z"/>
	<path id="Layer" class="s28" d="m83.5 320.6l0.8 3.3-0.1 0.3c-0.7 1.5-3.8 7.8-3.8 6.4q0.1-0.8 0.4-1.6v-0.1q0.2-0.8 0.4-1.6v-0.2c0.8-3.6 1.2-7.3 1.1-10.9q0-0.1 0-0.1l0.8 3.2z"/>
	<path id="Layer" class="s28" d="m107 331.9v-0.1q0-0.8 0.1-1.6v-0.2q0.1-2.9 0.6-5.4 0.1-0.8 0.2-1.6 0.4-1.9 1-3.6c2.3-6.9 8.2-8.1 9-0.8q0.1 0.9 0.1 1.9c0 10-0.8 60.6-0.8 60.6 0 0-4 0.5-4.2 0.5-1.3-12-6.4-31.4-6.1-48q0-0.9 0.1-1.7z"/>
	<path id="Layer" class="s28" d="m110.3 326.9q-0.6-0.2-1.1-0.6c-0.7-0.3-1.3-1-1.5-1.7-0.5-1.5-1-3.5-1.6-5.8q0 0 0-0.1c-1.1-4.6-2.4-10.5-3.7-16.2-1.5-7.1-2.9-14-3.6-17.9 0-0.2-0.6-3-0.7-3.2-2.1-12.1 7.3-20 14.2-17.7l0.2 0.1c1.4 0.6 1.8 5.4 2.1 8.7 0.3 3.3 2.6 37.1 3.2 43.3q0.1 1.3 0.1 2.7c-0.1 7.6-4.6 9.3-7.6 8.4z"/>
	<path id="Layer" class="s28" d="m107.9 323l1.3 3q0 0 0 0.4c-0.4 1.6-2.1 8.7-2.3 7.2q-0.1-0.8 0-1.7v-0.1q0.1-0.8 0.1-1.6v-0.2q0.1-5.7-0.9-11.2 0 0 0 0l1.3 2.9z"/>
	<path id="Layer" class="s8" d="m108.6 249.4c9.5 22.1 8.1 45.2 8.1 46.4-17.6 7.4-35.9 1.8-35.9 1.8 0.3 0-0.7-10-0.8-10.7-0.5-4.7-1.1-8.8-1.5-13.5-0.9-11.4 7.9-22.6 7.9-22.6q11.2 0.1 22.2-1.4z"/>
	<path id="Layer" class="s29" d="m114.2 224.8c-0.1 3.2-1.8 5.2-4.3 7.9-0.3 0.5-1 7.7-1.3 12.5-0.1 2.4 0.9 4 0 4.2-3.5 3.1-16.3 5.6-22.2 1.4 0.7-5.2-1.7-16.6-3.2-22.5q-0.4-1.3-0.7-2.2c-1.5-4.4-4.1-18.6-2.1-19.2 0.3-0.1 1-0.3 1.6-0.5 3.1-0.9 7.6-2.5 7.6-2.5 0 0 2.7 7.8 9.6 8.8 3.7-1.6 3.4-6.3 3.4-8.5 1.2 0.3 1.7 0.7 5.5 1.8 1.1 1.5 0.2 4.7 1.9 9.5 0.4 1.2 4.3 5.4 4.2 9.3z"/>
	<path id="Layer" class="s28" d="m107.9 180.6c0 0 0.7 8.5-0.7 13-1.1 3.3-5.5 6.4-9.2 6.3-10.2 0-12-13.8-12-14.4 0.1-0.7 15-6.5 15-6.5z"/>
	<path id="Layer" class="s8" d="m127.3 386.4c-3.6 0.6-7.5-0.4-9.1-0.1-1.3 0.2-4.7 1-5.9-0.1-1.3-1.1-1.1-5.1 0.4-5.7q0.4 0.2 0.9 0.3c1.5 0.2 2.9 0 4.3-0.4 2.8 1.2 2.9 1.6 6 2.3q2 0.4 4 1.2c1.3 0.6 1.4 2.1-0.6 2.5z"/>
	<path id="Layer" class="s8" d="m88.2 387.9c-3.6-0.6-5.9-2.6-7.5-2.8-1.3-0.3-4.6-0.9-5-2.3-0.2-1 0.8-5.2 2.3-5.2q0.4 0.3 0.8 0.6c1.3 0.6 2.7 1 4.2 1.1 2.2 2 2.1 2.5 4.9 4.1q1.8 1.1 3.3 2.5c1.1 1.1-0.9 2.4-3 2z"/>
	<path id="Layer" class="s28" d="m35.3 218.7l3.4-3.9 20.3 18.2c0 0 9.9-13.3 12.6-17.4 3-4.5 5.8-8.4 10.1-9.1 1.1 0.6-0.3 16.9-0.8 17.3-6.2 4.6-18.1 19.4-21.9 20.1-4.4 0.9-23.7-25.2-23.7-25.2z"/>
	<path id="Layer" class="s29" d="m91.3 217.9l-7.6 7.3c0 0-0.1-3-1.6-1.8-2.4 2-6.7 6.2-6.7 6.2-2.3-0.3-4.4-1.2-6.2-2.6-0.7-0.6-1.2-1.3-1.6-2.1-0.4-0.9-0.6-1.8-0.6-2.7 0 0 8.5-13.5 10.3-15 1.8-1.4 5.9-1.5 5.9-1.5z"/>
	<path id="Layer" class="s8" d="m80.8 205.9q-0.4-0.2-0.7-0.4c-1.2-0.7-2.2-1.4-2.7-2.7-0.7-2-1.1-4.9-0.1-6.7 0.7-1.3 1.9-2.1 2.8-3.2 1.2-1.6 1.6-3.6 1.7-5.6 0-2 0-4 0.4-5.9 0.7-3.3 1.6-6.4 4.1-8.5 4.1-3.4 12.2-5.4 16.6-1.6 0.8 0.7 1 1.2 2.1 1.3 1.3 0.1 2.5 0.5 3.7 1.1 1.4 0.9 3.2 2 3 3.9-0.2 1.4-1.7 3.4-2.8 4.1q-0.7 0.3-1.6 0.3c-1.7 0-3.1-1.1-4.8-0.9-0.8 0.1-1.6 0.5-2.1 1.2-0.6 0.7-0.5 1.8-1.3 2.5-1.1 1.1-2.9 1-4.2 1.8q-0.4 0.1-0.6 0.4-0.2 0.4-0.1 0.8l-0.1 2.1c-0.7-0.3-0.8-1.3-1.3-1.7q-0.5-0.4-1-0.3-0.6 0-1 0.4c-0.5 0.5-0.8 1.1-0.9 1.8-0.1 0.9 0.1 1.8 0.4 2.6 0.4 1.4 1.7 2.7 2.7 1.8 0.7 1-0.1 2.8-0.1 4.1 0 0.9 0 2.8 0.9 3.5 0.9 0.6 2.1 0.1 2.2 1.6 0 1.4-1.4 2.4-2.7 2.6-1.4 0.2-2.7-0.3-4-0.7-1.3-0.4-2.8-0.7-4.1-0.2-0.7 0.3-1.4 0.9-2.2 1-0.8 0.1-1.6-0.1-2.2-0.5z"/>
	<path id="Layer" class="s28" d="m39.1 222.5c0 0-3.3-3.8-4-3.8-0.3 0-9.3-1.2-6-7.6 0.7-1.5 1.6-3.4 3.6-3.7 1.3-0.3 0.7 0.1 1.9 0.6q1.1 0.5 2 1.3 0.8 0.9 1.3 2c0.4 1 0.5 2.2 0.8 3.2 0.3 1.1 5.1 4.9 5.1 4.9z"/>
	<path id="Layer" class="s28" d="m28.5 216.1q-0.1-0.2-0.2-0.3 0-0.2 0-0.4 0.1-0.2 0.2-0.3l7.7-11.3 4.2 2.4-7.1 12q-0.1 0.2-0.3 0.3-0.1 0.1-0.3 0.2-0.2 0-0.4 0-0.2-0.1-0.3-0.2l-3.3-2.2q-0.1-0.1-0.2-0.2z"/>
	<path id="Layer" class="s24" d="m16.4 185.5c1.3-1.8 3.6-2.4 5.2-1.4l1.1 0.8-4.6 6.6-1.1-0.7c-1.6-1.1-1.8-3.5-0.6-5.3z"/>
	<path id="Layer" class="s24" d="m28 176.8l10.6 18.3-4.8 7-20.9-3.2z"/>
	<path id="Layer" class="s28" d="m19.2 191.9l16.5 7.4-1.9 2.8-19.6-2.9z"/>
	<path id="Layer" class="s24" d="m42 203.4l0.8-1.2c0.9-1.3 2.5-1.7 3.6-0.9 1.2 0.7 1.4 2.4 0.5 3.7l-0.9 1.2c-0.8 1.3-2.5 1.7-3.6 0.9-1.1-0.7-1.3-2.4-0.4-3.7z"/>
	<path id="Layer" class="s30" d="m43 201.9c-0.3 0.6-0.4 1.2-0.3 1.8 0.1 0.7 0.4 1.2 1 1.6 0.5 0.3 1.2 0.5 1.8 0.3 0.6-0.1 1.2-0.4 1.6-0.9q-0.1 0.1-0.2 0.2l-0.9 1.3c-0.8 1.3-2.5 1.7-3.6 0.9-1.1-0.7-1.3-2.4-0.4-3.7l0.8-1.2q0.1-0.2 0.2-0.3z"/>
	<path id="Layer" class="s21" d="m11.6 198.5c0-0.4 0.1-0.8 0.3-1.1l14.4-21c0.2-0.3 0.6-0.6 1-0.7 0.3-0.1 0.8 0 1.1 0.2 0.3 0.3 0.5 0.6 0.6 1 0 0.4-0.1 0.8-0.3 1.2l-14.4 20.9c-0.2 0.4-0.6 0.6-1 0.7-0.4 0.1-0.8 0.1-1.1-0.1-0.3-0.3-0.6-0.7-0.6-1.1z"/>
	<path id="Layer" class="s28" d="m29 177.2q0 0.5-0.3 0.8l-14.4 21c-0.2 0.3-0.5 0.6-0.9 0.7-0.4 0.1-0.8 0-1.2-0.2-0.3-0.2-0.5-0.6-0.5-1-0.1-0.4 0-0.8 0.3-1.1l2.4-3.5q0.1 0.2 0.3 0.4c0.4 0.2 0.8 0.2 1.2 0.1 0.4-0.1 0.7-0.3 0.9-0.7l12-17.4q0.2 0.4 0.2 0.9z"/>
	<path id="Layer" class="s21" d="m34.9 199.1l1.3-2c1.6-2.2 4.5-3 6.5-1.6l1.3 0.9c2 1.4 2.4 4.3 0.8 6.6l-1.3 2c-1.6 2.3-4.5 3-6.5 1.6l-1.4-0.9c-2-1.3-2.3-4.3-0.7-6.6z"/>
	<path id="Layer" class="s28" d="m34.6 200.1c0.1 0.4 0.3 0.8 0.6 1l6.3 4.3c0.3 0.2 0.7 0.3 1.1 0.2 0.4-0.1 0.7-0.4 0.9-0.7l-2 2.9c-0.2 0.3-0.5 0.6-0.9 0.7-0.4 0.1-0.8 0-1.1-0.2l-6.3-4.3c-0.3-0.2-0.5-0.6-0.6-1 0-0.4 0.1-0.7 0.3-1.1l2-2.9c-0.2 0.3-0.3 0.7-0.3 1.1z"/>
	<path id="Layer" class="s28" d="m29.4 213.3c-0.3-1.7 0.1-3.5 1.2-4.9q0.5-0.7 1.1-1.3 0.3-0.3 0.7-0.4c0.6-0.1 1.1 0 1.6 0.3 0.5 0.3 1 0.7 1.2 1.3 0.4 0.8-0.2 1.5-0.9 2-0.1 0-0.1 0-0.2 0.1q0 0.1 0.1 0.2 0 0.1 0.1 0.2c0.3 0.5 0.4 1.1 0.4 1.7q0 0.1-0.1 0.3-0.1 0.2-0.2 0.3-0.2 0.1-0.4 0.2-0.2 0-0.4 0c-0.2 0-0.6-0.1-0.6 0q-0.1 0.2 0 0.3 0 0.3-0.1 0.7-0.1 0.4-0.3 0.6-0.1 0.2-0.3 0.2-0.2 0-0.3 0-0.6-0.2-1.2-0.5z"/>
	<path id="Layer" class="s28" d="m36.4 216.2c-1.1-0.2-1.5-1.6-1.5-2.6 0-1 0.2-2 0.7-2.9 0.2-0.7-0.6-1.8-0.8-2.4q-0.1-0.3-0.1-0.6 0-0.1 0.1-0.3 0.1-0.1 0.3-0.1 0.2 0 0.4 0.1c0.8 0.5 1.5 1.2 2 2.1 0.5 0.8 0.7 1.7 0.8 2.7q0.1 1.3 0.4 2.6z"/>
	<path id="Layer" class="s31" d="m14.4 166.6l4.2 10"/>
	<path id="Layer" class="s31" d="m5.6 175.5l8.6 6.5"/>
	<path id="Layer" class="s31" d="m0 187.5l10.7 1.1"/>
	<path id="Layer" class="s28" d="m341.2 86.2c0 0-3.6-3.4-5.1-3.3-1.5 0.2-3-1.8-3.5-2.8-0.5 0.4-2.6-0.5-3.4-2.1-0.5-1 0.3-1-0.3-1.9-0.5-1 0.9-1.9 0.6-2.4-0.2-0.6 0.5-1.5 0.5-1.5l-0.7-0.5c-0.7-0.4-4.3-0.1-5-0.9-0.7-0.7 4.9-1.2 5.8-1 1 0.1 5.5 1.7 6.4 2.6 0.8 0.9 3.5 5.5 3.6 6.7 0.2 1.1 4 3.9 4 3.9z"/>
	<path id="Layer" class="s28" d="m403 63.6c0.1 2.6-0.1 7.1 0.7 7.8 0.7 0.6 3.1 0.5 3.1 0.5 0 0-8.5 10.8-9.3 10.3-0.8-0.6-10.9-8.9-8.6-9.3 2.2-0.4 4.4-0.4 4.4-1.5q-0.1-1.8-0.2-3.6z"/>
	<path id="Layer" class="s26" d="m412.7 121.4c0 0-16.7 1.9-20.5 2-3.9 0-3.7-2-3.7-2-0.2-4.2-0.9-14.2-1.7-17.5-0.7-3.2-1.1-4.4-1.7-7.4-1.5-6.7-1.4-7.9-2.9-16.2l10-8c0 0 1 3.1 5.2 3.1 5.6 0.1 7.3-3.8 7.3-3.8l13.6 9 1.3 22-1.6 18.1z"/>
	<path id="Layer" class="s28" d="m403.2 61.2q-0.5 2-1.2 3.9c-0.9 2.3-2.2 3.1-4.6 3.1l-5.1 0.1c-1.3 0.1-3 0.1-4-0.8-1.1-0.9-1.1-2.5-1.3-3.7q-0.5-2.4-0.8-4.9-0.5-4.8-0.4-9.6 0-0.6 0.1-1.3 0-0.3 0.2-0.5 0.3-0.2 0.6-0.2 4.8-0.8 9.7-0.6c2.3 0 4.7 0.3 6.5 1.7 1.8 1.4 2.7 3.7 3.5 5.9 0.1 0.3 0.2 0.8-0.1 1z"/>
	<path id="Layer" class="s32" d="m369.9 178.7c0 0 1.5 5.4 1.2 6.1-0.2 0.7-4 1.8-4.4 0.6q-0.6-2.2-1-4.4z"/>
	<path id="Layer" class="s33" d="m372.4 185.7c0.3 1.3 0.7 3.6 0.7 3.6l-3.7 1.6-0.6-0.5q-0.9 1-2.1 1.6-1.7 0.7-3.6 1c-3.2 0.3-5.6-0.3-5.8-0.7-0.8-1.9 3.5-2.4 4.4-2.6 0.9-0.3 1.8-0.8 2.6-1.5 0.7-0.7 1.2-1.6 1.4-2.6 0.2-1 0-1.2 0.6-1.2q0.2 0 0.5 0.2 0.2 0.1 0.4 0.3c0.3 0.3 0.7 0.6 1.2 0.7 0.5 0.1 1 0.1 1.4-0.1 0.6-0.2 1-0.6 1.3-1.1q0.5 0.1 0.9 0.5 0.3 0.3 0.4 0.8z"/>
	<path id="Layer" class="s8" d="m382.2 137.6c-6.3 1.1-12.7 1.2-19.1 0.4 0.9 2.4 2.9 5.4 3.7 8.7 2.5 11 3.4 25.7 4 34.8 0 0-1.2 2.4-5.1 0.6-5.8-14.4-16-43.6-15.9-50 0.1-8 20.2-10 35-11.9z"/>
	<path id="Layer" class="s33" d="m407.9 121.4c4.6 3.4-25.7 16.2-25.7 16.2q-5 0.9-10 0.9-0.5-0.9-0.8-1.9c-0.1-0.9 0-1.8-0.2-2.7q-0.3-1.3-1.1-2.3-0.8-1.1-1.9-1.7c-1.6-0.9-3.2-1.4-5-1.7-4.1-0.6-11.3-0.2-11.3-0.2 9.2-6.7 27.8-7.6 36.5-8.1 1.7 2.7 18.8 1 19.5 1.5z"/>
	<path id="Layer" class="s32" d="m379.9 187.1c0 0 0.5 5.6 0.1 6.2-0.4 0.7-4.2 1.1-4.5-0.1q-0.2-2.3-0.2-4.6z"/>
	<path id="Layer" class="s33" d="m381.1 194.5c0.1 1.2 0.1 3.7 0.1 3.7l-3.9 0.9-0.6-0.7q-1 0.9-2.3 1.3-1.8 0.4-3.7 0.4c-3.3-0.3-5.5-1.3-5.6-1.8-0.5-1.9 3.8-1.7 4.7-1.8 1-0.1 2-0.4 2.8-1 0.8-0.6 1.5-1.4 1.9-2.3 0.4-0.9 0.1-1.1 0.7-1q0.2 0 0.5 0.2 0.2 0.1 0.3 0.4c0.3 0.4 0.7 0.7 1.1 0.9 0.5 0.2 1 0.2 1.4 0.1 0.6-0.1 1.1-0.4 1.5-0.9q0.5 0.2 0.8 0.6 0.3 0.5 0.3 1z"/>
	<path id="Layer" class="s8" d="m419.2 133.1c-1 3-2.8 4.6-5.1 5.4-10 3.3-18.8 1.9-29.7 0.4 4.6 12.5-2.1 39.4-3.2 50.8-4.2 1.8-6.6-0.2-6.6-0.2 0.5-23.1-4.7-55.5-1.6-61 1.9-3.4 21.8-7.1 24.4-7.1q10.3 0.2 20.6-0.7c1.7 2.7 2.3 9.4 1.2 12.4z"/>
	<path id="Layer" class="s26" d="m385.8 91c-5 3.2-20.6 11.4-23.4 11.4-5.9 0-25.4-18.1-25.4-18.1l4.4-4.4c0 0 18 12.4 20.1 12 2-0.4 13-10.9 15.1-12.8 2.2-1.9 4.1-4.5 6.8-5.5q2.9-0.9 5.9-1.1c0.5 0 2.9-0.2 2.9-0.2z"/>
	<g id="Layer" style="opacity: .3">
		<path id="Layer" class="s34" d="m383.2 85.9l1 6.1-1.7 0.9c-6.6 3.8-17.8 9.5-20.1 9.5-5.9 0-25.4-18.1-25.4-18.1l0.9-0.8c2.1 1.6 20.5 15.7 24.5 15.4 4.3-0.2 20.8-13 20.8-13z"/>
	</g>
	<path id="Layer" class="s21" d="m335.8 98.7q-0.1-0.5-0.1-1.1 0.1-0.5 0.4-0.9 0.4-0.4 0.8-0.7 0.5-0.2 1-0.2h39.2c0.7 0 1.4 0.2 2 0.7 0.6 0.4 1 1 1.3 1.7l8 26.2h-44.7z"/>
	<path id="Layer" class="s29" d="m342.6 124.2q-0.3-0.2-0.4-0.5l-7.6-25q-0.2-0.5-0.1-1.1 0.1-0.5 0.4-0.9 0.3-0.4 0.8-0.7 0.5-0.2 1-0.2h39.1c0.8 0 1.5 0.2 2.1 0.7 0.6 0.4 1 1 1.2 1.7l8 26.2h-44q-0.3-0.1-0.5-0.2z"/>
	<g id="Layer" style="opacity: .3">
		<g id="Layer" style="opacity: .3">
			<path id="Layer" class="s34" d="m404.7 71.6c5.6 0.4 9.3 1.1 14.3 3.6q1.3 0.6 2.3 1.7c1.1 1.5 1.2 3.4 1.2 5.3-0.2 12.9-3.8 36.6-5.1 37-1.3 0.3-19.9 5.5-27 5.4 0 0-7.5-1-7.1-2.3 0.6-2.3 6.7-1.3 6.7-1.3 7.6-3.4 10.8-7.9 18.6-10.9 0.6-7.2 1-15.1 3.3-25.2z"/>
		</g>
	</g>
	<path id="Layer" class="s28" d="m391.7 124.1c-3.3 1.4-7 1.5-10.5 0.9-0.9-0.1-1.7-0.4-2.4-1q-0.2-0.2-0.3-0.5 0-0.2 0.1-0.4 0.2-0.1 0.4-0.2 0.3-0.1 0.7-0.1 3.5 0.1 7-0.2c-1.2-0.3-3.4 0.2-3.4-0.3 0-0.5 0.6-0.6 1-0.7q1.5-0.2 3-0.2c1.4 0 2.9 0.1 3.7 1.2z"/>
	<path id="Layer" class="s26" d="m404.7 71.6c5.6 0.4 9.3 1.1 14.3 3.6q1.3 0.6 2.3 1.7c1.1 1.5 1.2 3.4 1.2 5.3-0.1 12.9-2.5 33-4.3 34.7-2 1.8-27.3 8-27.8 7.7-0.5-0.8-0.5-1.8-0.3-2.7 7.7-3.4 15.1-9.6 20.5-10.7-0.2-10.8 0.6-15.7 0.8-26.4z"/>
	<ellipse id="Layer" class="s35" cx="359.5" cy="110.5" rx="6.3" ry="4.1"/>
	<ellipse id="Layer" class="s21" cx="359.8" cy="109.6" rx="4" ry="2.3"/>
	<path id="Layer" fill-rule="evenodd" class="s36" d="m396.7 55.7l-0.3-0.1q-0.6-0.1-1.2 0c-0.1 0.1-0.1 0.1-0.4 1.8-0.3 1.3-1.2 2-3.1 1.9-1.6-0.1-1.8-1.6-2-2.3-0.3-0.6-0.5-0.7-0.7-0.7-0.2 0.1-0.3 0.2-0.4 0.9-0.2 0.7-0.3 2.4-1.7 2.7q-0.3 0-0.6 0c-0.8 0-1.3-0.4-1.6-1.2-0.7-1.6-0.7-1.6-0.9-1.7q-0.3-0.6-0.3-1.3c0-0.4 0.8-0.6 1.7-0.7l0.7-0.1q1.1-0.2 2.2 0.1c0.5 0.2 0.5 0.5 0.8 0.5 0.3-0.1 0.2-0.3 0.7-0.7 0.5-0.4 2.9-0.7 3.8-0.8 0.9-0.1 1.8 0 1.9 0.4q0.4 0.3 0.9 0.5l0.5 0.3zm-8.7 0.4c-0.2-0.5-0.6-0.5-1.7-0.4h-0.4c-0.9 0-1.2 0-1.4 0.3-0.1 0.3-0.1 1.1 0.3 2.1 0.5 1 0.8 1.5 1.5 1.5q0.2 0 0.3 0c1-0.1 1.4-0.9 1.5-1.8q0.1-0.9-0.1-1.7zm6.3-1.3c-0.2-0.3-1.7 0-2.8 0.2-1.1 0.2-1.5 0.3-1.5 0.8q0 0.9 0.3 1.7c0.3 0.9 0.6 1.6 2.4 1.4 1.2-0.2 1.7-0.8 1.8-2 0.2-1.1 0-1.9-0.2-2.1z"/>
	<path id="Layer" class="s36" d="m406.3 60.4c-0.4 1.2-1 2.2-1.5 3.3-0.4 0.7-0.7 1.4-1.4 1.6q-0.7 0.1-1.4-0.1l-0.9-0.3q-0.4-0.1-0.8-0.3-0.4-0.2-0.7-0.6c-0.7-0.6-2.1-3.3-1.6-3.4 1.3-0.3 2-1.7 2-3-0.1-1-0.4-2.3-1-2.6-1.2-0.7-1.9-0.7-2.1 1.3-0.3 0-0.5-0.4-0.6-1.1-0.4-1.4-0.7-3.9-2-5-0.2-0.2-4.1-0.9-4.9-0.8-0.8 0.2-1.7 0.2-2.4 0.7q-0.4 0.4-0.7 0.9-0.3 0.5-0.3 1.1c0 0.3 0 2.4 0 2.4q-0.4-0.2-0.6-0.4-0.2-0.3-0.3-0.6c-0.1-0.7-0.1-2.3-0.3-2.7-0.2-0.3-1.7-0.9-2-1.7-0.7-1.8-1.9-8.3 4.8-5.9 0.9 0.3 1.7 0.8 2.4 0.8 0.9 0 1.5-0.9 3.3-1.4 3.1-0.8 6.4-0.5 9.3 0.9 1 0.6 1.9 1.4 2.6 2.3 0.7 1 1.2 2 1.5 3.2q0.4 1.3 0.5 2.6c0.4 3 0.1 6-0.9 8.8z"/>
	<path id="Layer" class="s3" d="m527.7 150.7h-84.6l10.1-7.5v-36.6c0-1.5 0.6-2.9 1.6-3.9 1.1-1.1 2.5-1.6 3.9-1.6h69c1.5 0 2.9 0.5 3.9 1.6 1 1 1.6 2.4 1.6 3.9v38.6q0 1.1-0.4 2.1-0.4 1-1.2 1.8-0.8 0.7-1.8 1.2-1 0.4-2.1 0.4z"/>
	<path id="Layer" class="s37" d="m525.9 111.9h-38.7v-3.7h38.7z"/>
	<path id="Layer" class="s37" d="m525.9 117.4h-38.7v-3.7h38.7z"/>
	<path id="Layer" class="s37" d="m525.9 123h-38.7v-3.7h38.7z"/>
	<path id="Layer" class="s37" d="m525.9 128.3h-38.7v-3.7h38.7z"/>
	<path id="Layer" class="s37" d="m514.2 134.8h-27v-3.7h27z"/>
	<rect id="Layer" class="s21" x="459.9" y="108.2" width="24.3" height="28.4" rx="1.8"></rect>
	<path id="Layer" class="s37" d="m484.2 143.2h-24.3v-3.1h24.3z"/>
	<path id="Layer" class="s38" d="m474.4 126.6h-8.8q-0.4 0-0.7-0.2-0.3-0.2-0.4-0.6l-1.6-6.2q-0.1-0.3-0.1-0.5 0.1-0.3 0.2-0.5 0.2-0.2 0.4-0.3 0.2-0.1 0.5-0.1h12.2q0.3 0 0.5 0.1 0.2 0.1 0.4 0.3 0.1 0.2 0.2 0.5 0 0.2 0 0.5l-1.7 6.2q-0.1 0.4-0.4 0.6-0.3 0.2-0.7 0.2z"/>
	<path id="Layer" class="s38" d="m476 128h-10.6q-0.1 0-0.1 0-0.1 0-0.1 0 0-0.1 0-0.1-0.1 0-0.1-0.1 0-0.1 0.1-0.1 0.1-0.1 0.2-0.1h10.4l3.7-12.9q0-0.1 0.1-0.1 0 0 0.1 0h2.3q0 0 0.1 0 0 0 0.1 0 0 0.1 0 0.1 0 0 0 0.1 0 0 0 0.1 0 0 0 0-0.1 0.1-0.1 0.1-0.1 0-0.1 0h-2.1l-3.7 12.9q0 0.1-0.1 0.1-0.1 0-0.1 0z"/>
	<path id="Layer" class="s38" d="m467 129.8c0 0.3-0.2 0.6-0.4 0.9-0.2 0.2-0.6 0.4-0.9 0.4-0.3 0-0.7-0.2-0.9-0.4-0.3-0.3-0.4-0.6-0.4-0.9 0-0.4 0.1-0.7 0.4-0.9 0.2-0.3 0.6-0.4 0.9-0.4 0.3 0 0.7 0.1 0.9 0.4 0.2 0.2 0.4 0.5 0.4 0.9z"/>
	<circle id="Layer" class="s38" cx="475" cy="129.8" r="1.3"/>
	<path id="Layer" class="s3" d="m208.4 97.5c-1.3-1.3-2.1-3.1-2.1-5v-61.5c0-1.8 0.8-3.6 2.1-4.9 1.3-1.4 3.1-2.1 5-2.1h87.8q1.4 0 2.7 0.5 1.3 0.6 2.3 1.6 1 1 1.5 2.2 0.5 1.3 0.5 2.7v59l12.9 9.6h-107.7c-1.9 0-3.7-0.8-5-2.1z"/>
	<g id="Layer" style="opacity: .5">
		<path id="Layer" class="s37" d="m215.7 34.9h49.3v4.8h-49.3z"/>
		<path id="Layer" class="s37" d="m215.7 42h49.3v4.7h-49.3z"/>
		<path id="Layer" class="s37" d="m215.7 49h49.3v4.7h-49.3z"/>
		<path id="Layer" class="s37" d="m215.7 55.9h49.3v4.7h-49.3z"/>
		<path id="Layer" class="s37" d="m215.7 62.8h49.3v4.7h-49.3z"/>
		<path id="Layer" class="s37" d="m215.7 75.2h49.3v4.7h-49.3z"/>
		<path id="Layer" class="s37" d="m215.7 82.6h84.1v4.8h-84.1z"/>
	</g>
	<rect id="Layer" class="s24" x="268.8" y="34.9" width="30.9" height="36.2" rx="2.3"></rect>
	<path id="Layer" class="s37" d="m268.8 75.6h31v3.9h-31z"/>
	<path id="Layer" class="s19" d="m280.4 58.1q-0.4-0.3-0.5-0.7l-2.2-8q0-0.3 0-0.6 0.1-0.4 0.3-0.6 0.2-0.3 0.5-0.4 0.3-0.2 0.6-0.2h15.6q0.3 0 0.6 0.2 0.3 0.1 0.5 0.4 0.2 0.2 0.2 0.6 0.1 0.3 0 0.6l-2.2 8q-0.1 0.4-0.5 0.7-0.3 0.3-0.8 0.3h-11.2q-0.5 0-0.9-0.3z"/>
	<path id="Layer" class="s19" d="m279.1 60.2q-0.1-0.1-0.1-0.2l-4.7-16.4h-2.7q-0.2 0-0.2-0.1-0.1-0.1-0.1-0.2 0-0.1 0.1-0.2 0-0.1 0.2-0.1h2.9q0.1 0 0.2 0.1 0 0.1 0.1 0.1l4.7 16.5h13.3q0.1 0 0.2 0 0.1 0.1 0.1 0.2 0 0.2-0.1 0.2-0.1 0.1-0.2 0.1h-13.5q-0.1 0-0.2 0z"/>
	<path id="Layer" class="s19" d="m291.2 61.3c0.3-0.4 0.7-0.5 1.1-0.5 0.5 0 0.9 0.2 1.2 0.5 0.3 0.3 0.5 0.7 0.5 1.1 0 0.4-0.2 0.9-0.5 1.2-0.3 0.3-0.7 0.5-1.2 0.5-0.4 0-0.8-0.2-1.1-0.5-0.3-0.3-0.5-0.8-0.5-1.2 0-0.4 0.2-0.8 0.5-1.1z"/>
	<path id="Layer" class="s19" d="m279.3 61.3c0.3-0.4 0.7-0.5 1.2-0.5 0.4 0 0.8 0.2 1.1 0.5 0.3 0.3 0.5 0.7 0.5 1.1 0 0.4-0.2 0.9-0.5 1.2-0.3 0.3-0.7 0.5-1.1 0.5-0.5 0-0.9-0.2-1.2-0.5-0.3-0.3-0.5-0.8-0.5-1.2 0-0.4 0.2-0.8 0.5-1.1z"/>
	<ellipse id="Layer" class="s1" cx="462.7" cy="405" rx="47.5" ry="5"/>
	<path id="Layer" class="s6" d="m444 400.8c0.4 3.2 0.3 3.4-2.5 3.4q-2.9 0-5.8 0.4c-1.8 0.3-5.5 0.9-8.6-0.1-3.1-1.1 2.5-1.6 5.1-2.8 2.7-1.2 4.6-3 5-3.8 1.3-2.5 6.3-1.5 6.8 2.9z"/>
	<path id="Layer" class="s6" d="m495.7 397.4c1.4 1.3 2 3.4-0.8 4.3-2.2 0.6-0.8 2-2.5 2.9-1.8 0.8-5.1 1.6-8.5 1.5-3.4-0.1 1.8-2.2 4-4.2 2.3-2 1-4.7 1.2-5.6 0.5-2.8 4.6-3.2 6.6 1.1z"/>
	<path id="Layer" class="s8" d="m436.5 301.2c0-9.6 0.6-27.5 0.6-27.5 0 0 3.3 0.6 9.8 0.2 8.4-0.5 18.7-4.6 18.7-4.6 19.4 16.5 12.6 36.6 12.6 36.6z"/>
	<path id="Layer" class="s8" d="m434.9 339.2c-0.3-9 9.4-7.8 13-1.1 7.4 13.9-2.8 45.8-4.1 60.9-1.4 0.5-3.7 1-5.1 0.3-0.7-0.4-1.2-0.9-1.5-1.6 0.2-18.6-1.9-48.9-2.3-58.5z"/>
	<path id="Layer" class="s8" d="m447.5 340.6c-1.1 3.6-13.5 7.5-12.5-5.8 0.5-6 1.7-38.6 1.9-41.8 0.2-3.1 0.7-7.7 2.3-8.3 7.6-2.8 21 7.1 19 18.9-1.3 7.9-8.3 29.4-10.7 37z"/>
	<path id="Layer" class="s8" d="m467.1 345.7c-3-8.5 6.7-10 12.3-4.8 12.9 12.2 13.4 41 16.6 55.8-1.7 1.1-3.7 1.6-5.7 1.7q-0.4-0.1-0.8-0.3-0.4-0.2-0.7-0.5c-5.3-17.8-18.5-42.9-21.7-51.9z"/>
	<path id="Layer" class="s8" d="m479.9 342.9c0.3 3.8-10 11.7-14.1-1.1-1.8-5.6-9.5-39-10.5-42-0.9-3-0.7-9.2 0.5-10.3 6-5.5 19.4-0.6 22 11 1.7 7.9 1.4 34.5 2.1 42.4z"/>
	<path id="Layer" class="s39" d="m426.6 196.8q0.5-0.5 1-1.1c2.5-3.2 2.8-6 5.1-9.6 0.3-0.5 0.8-1.9 1.6-3.2 0.9-1.2 3.2-2.7 3.7-3 1.1-0.5 0.2 1.8 0.2 1.8 0 0 0.9-1.3 1.7-1.2 0.4 0 0.4 2 0.4 2.4 0.1 2.7-0.6 5.4-1.8 7.9q-0.5 0.8-0.6 1.8c0.8 0 1.4-0.6 2.1-1.1 0.6-0.4 1.5-0.9 2.2-0.6q-0.1 0.5-0.4 0.9c-1 1.8-2.1 3.8-3.9 4.7-1.1 0.5-2.4 0.6-3.5 1.2-2 1-2.9 3.4-4.9 4.4z"/>
	<path id="Layer" class="s40" d="m445.1 183.8l-5.7 13.8c-0.1 0.2-0.3 0.3-0.5 0.2l-7.2-3c-0.2-0.1-0.2-0.3-0.2-0.5l5.8-13.7c0.1-0.2 0.3-0.3 0.4-0.2l7.2 3c0.2 0.1 0.3 0.3 0.2 0.4z"/>
	<path id="Layer" class="s41" d="m439.1 197l-6.5-2.7 5.4-12.9 6.5 2.7z"/>
	<path id="Layer" class="s29" d="m436.5 231.2c0 0-1.2-2.7-5.1-1.5-8.8 2.9-17.2 5.6-24.5 5.8-2.6 0.1-5.5-1.9-5.9-3.9-0.8-4.8 24.8-34.7 25.5-35.8 0.7-1.2 6.7 3.8 6.7 3.8 0 0-5 12.2-9.5 17.9 2.3-1.3 4.6-4.4 11.4-6.4q4.6-1.3 9.4-1.6z"/>
	<path id="Layer" class="s42" d="m427.9 214.4c0 0-2.5 4.9-4.3 6.8-1.8 1.9-5.1 3.7-4.2 3.2 1-0.4 4.2-6.9 4.2-6.9 0 0 3.4-2.7 4.3-3.1z"/>
	<path id="Layer" class="s39" d="m433.7 186.1c0.3 0.3 0.5 0.7 0.5 1.1 0.2 1.4 0.4 2.9-0.1 4.2-0.4 0.9-1 1.7-1.8 2.2q-1.2 1.1-2.6 1.8z"/>
	<path id="Layer" class="s43" d="m448.5 180.3c-2 3.1-3.1 6.7-4.1 10.3-0.1 0.5-0.4 1.2-0.9 1.4q-0.3 0.1-0.6 0-0.3 0-0.5-0.2-0.5-0.4-0.8-0.9-0.7-0.8-1.1-1.7c-0.6-1.2-0.5-2.6-0.3-4q0.3-2.9 1.3-5.6c0.5-1.5 1.5-3.7 3.2-4.2z"/>
	<path id="Layer" class="s39" d="m441.6 192.4c-1-0.2-2.3-0.6-2.2-2.2 0-1.4 0.2-3.2 1.1-4.2 1-1.2 2.2-0.4 2.3 0.7z"/>
	<path id="Layer" class="s29" d="m431.4 215.4c2.1-2.4 8.7-6.4 17.7-6.1 6.1 0.2 22.9 1.2 24.7 5.3 1 2.1 2 23.6 0.6 31-1 5.6-3.7 19.5-3.7 22.8 0 3.3 1.8 4.8 0.9 5.7-1.8 2.2-14.7 3.1-20.7 3.1-5.3 0-14.4-1.4-14.9-3.1-0.7-2.6 1-2.5 1.3-5.1 0.2-2.7 0.9-20-0.1-22.9-1.8-5.1-2.6-13.4-4-17.2-1.1-2.9-3.9-11.1-1.8-13.5z"/>
	<path id="Layer" class="s42" d="m469.7 232.8c0.7 1.3 5 8.3 5 8.3l0.2 0.8q-0.1 1.9-0.5 3.7c-1 5.6-3.7 19.5-3.7 22.8 0 3.3 1.7 4.7 0.9 5.7-1.4 2-25.6 6.5-24.4 1 0.1-0.6 20.3-15.9 20.4-16.5 0.9-4.4 1.7-7.6 2.1-10.8 1-7.7-0.6-16.3 0-15z"/>
	<path id="Layer" class="s44" d="m456.3 197.2c0 0-1.4 11-1.4 11.5 0 0.6 1.4 1.2 1.4 1.2 0 0-10 5.1-11.6 5.5-1.5 0.5-2.5-5.6-2.5-5.6q0.9-0.4 1.7-0.9c0.3-0.3 0.3-7.3 0.3-7.3z"/>
	<path id="Layer" class="s44" d="m462.7 181.2l-4 14.5c-0.7 2.6-2.2 6.3-4.9 7.2-2 0.7-4.3 0.2-6.4-0.1-1.3-0.3-2.6-0.6-3.9-0.8-0.8-0.1-1.6-0.5-2.2-1.1-2.8-2.4-1.5-7.6-0.8-10.5 0.6-2.1 1.1-4.4 1.9-6.5 0.4-1.1 1.4-5 2.4-6.6 1.1-1.6 5-0.8 6.4-1.2z"/>
	<path id="Layer" class="s45" d="m446.4 218.3c2.3 14 3.2 28.2 2.6 42.4l-2.7 7-4-5.6c1.1-16.6 1.7-43.9 1.7-43.9z"/>
	<path id="Layer" class="s45" d="m443.1 215.7c0.5-0.7 1.3-1.2 2.1-1.5l0.4-0.2c0 0 2.9 1.6 2.7 2.5-0.2 1-1.9 1.8-1.9 1.8l-2.4-0.1q-0.6-1-0.9-2.1v-0.3z"/>
	<path id="Layer" class="s19" d="m455.1 207c1.1 0.8 2 1.8 2.8 2.9-1.3 2.9-4.1 8-7.3 10.4-1-2.5-2.8-4.7-5-6.3 0 0 8.6-1.5 9.5-7z"/>
	<path id="Layer" class="s19" d="m445.6 214c-2.1 1-3.8 2.6-4.9 4.7 0 0-0.6-4.7 0.7-8.7 0 0 2-2.5 2.7-2.6-0.3 3.3 1.5 6.6 1.5 6.6z"/>
	<path id="Layer" class="s39" d="m446 276.9q-1.3 0.6-2.6 1.1c-1.4 0.6-1.6 1.5-3 1.3-0.3-0.1-0.5-0.2-0.6-0.4q0-0.2 0.1-0.3 0.1-0.2 0.2-0.3c1.7-1.7 2.8-2.8 5.9-3.2z"/>
	<path id="Layer" class="s3" d="m435.6 252.8l10.8 34.7q0.2 0.3 0.1 0.6 0 0.3-0.2 0.6-0.1 0.2-0.4 0.4-0.3 0.1-0.6 0.1l-22.6 2q-0.6 0-1.2-0.4-0.5-0.4-0.7-1l-11.6-34.2c-0.3-0.9 1-2.3 1.9-2.3l22.6-2q0.7 0.1 1.2 0.5 0.5 0.4 0.7 1z"/>
	<path id="Layer" class="s3" d="m434.9 253.7l10.6 34.2q0.2 0.2 0.1 0.6 0 0.3-0.2 0.5-0.1 0.3-0.4 0.5-0.3 0.1-0.6 0.1l-22.6 2q-0.6-0.1-1.2-0.5-0.5-0.4-0.7-1l-10.7-34.2q-0.1-0.2-0.1-0.6 0.1-0.3 0.2-0.5 0.2-0.3 0.5-0.5 0.3-0.1 0.6-0.1l22.6-2q0.6 0 1.1 0.5 0.6 0.4 0.8 1z"/>
	<path id="Layer" class="s19" d="m427.3 251.7l0.9 2.9-10.6 1-0.8-3z"/>
	<path id="Layer" fill-rule="evenodd" class="s19" d="m424.9 252.7l-5 0.5-0.2-0.6q-0.1-0.1-0.1-0.2c-0.2-0.5-0.3-1.1-0.5-1.5-0.1-0.5-0.2-0.9-0.3-1.1q-0.2-0.5-0.1-1.1 0.1-0.6 0.4-1.1c0.3-0.3 0.7-0.6 1.2-0.6q0.1-0.1 0.2-0.1 0.7 0 1.3 0.2 0.7 0.3 1.3 0.9 0.5 0.6 0.8 1.3l0.8 2.6v0.2zm-4.5-4.4q-0.2 0.1-0.4 0.4-0.1 0.2-0.1 0.5 0 0.3 0.1 0.5c0.1 0.4 0.3 0.8 0.7 1 0.3 0.2 0.7 0.4 1.1 0.4q0.3-0.1 0.6-0.2 0.2-0.2 0.3-0.4 0.2-0.2 0.2-0.5 0-0.3-0.1-0.5-0.2-0.7-0.7-1c-0.4-0.3-0.8-0.4-1.2-0.4q-0.3 0-0.5 0.2z"/>
	<path id="Layer" class="s44" d="m457.5 274.7l-3.9 2.4c-0.6 0.3-1 0.8-1.3 1.4-0.8 2.7-2.6 2.8-3.5 3.5q-1.2 0.6-2.5 1.1-1.4 0.6-2.6 1.6c-0.9 0.8-0.8 0.8-1.2 1-0.7 0.4-1.2 0.2-1.2-0.1-0.3 0.4-1.1 0.7-1.3 0.3-0.5 0.3-0.9 0-0.9-0.3q-0.1-0.3 0-0.6c0.9-3.2-0.3-4.3 2.1-6.7q1.9-1.7 4-3c0.7-0.3 7-2.2 9.4-2.7z"/>
	<path id="Layer" class="s29" d="m469.9 212c0 0 5 1.7 7.5 4.9 7.8 10.3 8 39.5 5.7 46-2.2 6.5-30.4 15.9-30.4 15.9l-1.9-5.2 23.5-17c0 0-4.1-24.8-5.1-28.4z"/>
	<path id="Layer" class="s39" d="m445 281.6l-1 0.8c-1 0.7-1.6 1.9-2.5 2.8 0.4-0.6 1-1.5 1.5-2.1q0.9-0.9 2-1.5z"/>
	<path id="Layer" class="s39" d="m443.7 280c-1.7 1.4-2.3 3.6-3.5 5.3 1.1-1.8 1.7-4 3.5-5.3z"/>
	<path id="Layer" class="s39" d="m442.2 278.7c-0.3 0.5-0.7 0.9-1 1.2-0.9 1.3-1.3 2.9-1.7 4.3 0.3-1.5 0.7-3.1 1.7-4.3 0.3-0.4 0.7-0.7 1-1.2z"/>
	<path id="Layer" class="s45" d="m460.2 193.2c-0.9-0.5-1.6-1.1-2.2-0.2-0.3 0.5-0.6 1.1-1.1 1.3-0.3 0-0.5-0.1-0.8-0.2q-0.3-0.3-0.4-0.7-0.1-0.9 0.2-1.7 0.5-1.8 1.1-3.5c0.4-1.2 0.7-2.5 0.3-3.6q-0.4-0.9-1.2-1.5c-1.5-1.3-3.5-1.9-5.5-2.3-1.9-0.4-4-0.6-5.9-1.2q-1.2-0.4-2.2-1.2-0.8-0.7-1.2-1.6-0.4-1-0.4-2c0-1.4 0.4-2.7 1.1-3.9q0.3 0.7 0.6 1.3 0.4-0.9 1.1-1.6c0.6 3.2 14.1 2.1 17.2 3.5 2.2 1 4 1.6 3.9 5.2q0.2 0.3 0.5 0.5c1.9 1.8 2.7 4 3 7.2 0.3 3.9-2 8.2-4.3 11.4q-0.6 1.2-1.6 2c-0.9 0.6-2.1 0.9-3.2 0.7-0.9-0.2-2.9-0.1-2.9-1.1 0-0.7 1.5-2 1.9-2.5z"/>
	<path id="Layer" class="s44" d="m457.6 194.3c-0.1-0.5 0.1-1 0.3-1.4 0.3-0.4 0.7-0.7 1.1-0.8 1.6-0.5 2.5 1.2 2.2 2.9-0.1 0.8-0.4 1.5-0.9 2-0.5 0.6-1.1 1.1-1.8 1.3-0.5 0.2-1.2 0.3-1.6-0.2q-0.2-0.3-0.2-0.6-0.1-0.3 0-0.6z"/>
	<path id="Layer" class="s39" d="m444.2 202.2l4.4 0.8c0 0-1.5 1.6-4.4 1.6z"/>
	<g id="Layer" style="opacity: .3">
		<path id="Layer" class="s46" d="m107.4 123.8l2.9 7.1-5.8-2.9z"/>
		<ellipse id="Layer" class="s46" cx="98.7" cy="118.9" rx="12.3" ry="11.5"/>
		<path id="Layer" class="s11" d="m95.8 114.6q0.2-0.2 0.4-0.3 0.2-0.1 0.4-0.1 0.2 0 0.4 0.1l7.2 4.2q0.2 0.1 0.3 0.3 0.1 0.2 0.1 0.4 0 0.2-0.1 0.4-0.1 0.2-0.3 0.4l-7.2 4.1q-0.2 0.1-0.4 0.1-0.2 0-0.4-0.1-0.2-0.1-0.4-0.3-0.1-0.2-0.1-0.5v-8.2q0-0.3 0.1-0.5z"/>
	</g>
	<g id="Layer" style="opacity: .3">
		<path id="Layer" class="s46" d="m505.5 215.9l-5.8 2.9 2.9-7.1z"/>
		<ellipse id="Layer" class="s46" cx="511.3" cy="206.8" rx="12.3" ry="11.5"/>
		<path id="Layer" class="s11" d="m509 205.8c0.9-0.5 1.7-1.2 2.2-2.1 0.6-0.9 0.8-1.9 0.8-3 0-0.4-0.2-1.2 0.4-1.5 0.6-0.4 1.3 0.2 1.5 0.6 0.9 1.4 0.8 3.2 0.5 4.9h3.4q0.5-0.1 0.9 0.1 0.3 0.2 0.5 0.5 0.1 0.4 0.1 0.7c-0.1 0.5-0.4 0.9-0.8 1.2 0.7 0.5 0.4 1.9-0.6 1.6q0.2 0.1 0.3 0.2 0.1 0.1 0.2 0.3 0.1 0.1 0.1 0.3 0 0.1-0.1 0.3c-0.2 0.4-0.6 0.6-1 0.8 1 0.3 0.3 1.5-0.5 1.6-2.4 0.1-5.2 0.1-7.8 0 0-2.2-0.1-6.5-0.1-6.5z"/>
		<path id="Layer" class="s11" d="m508.1 212.3h-4v-6.5h4z"/>
	</g>
	<g id="Layer" style="opacity: .3">
		<path id="Layer" class="s46" d="m318.5 112.1l5.8-1.1-4.2 4.5z"/>
		<ellipse id="Layer" class="s46" cx="313.3" cy="116.6" rx="8.9" ry="8.4"/>
		<path id="Layer" class="s11" d="m311.5 115.9c0.7-0.4 1.2-0.9 1.5-1.6 0.4-0.6 0.5-1.4 0.5-2.1 0-0.3-0.1-0.9 0.2-1.1 0.4-0.3 0.9 0.1 1.1 0.4 0.5 1.1 0.5 2.4 0.3 3.5h2.2q0.3 0 0.6 0.2 0.2 0.1 0.3 0.3 0.1 0.3 0.1 0.5-0.1 0.6-0.6 0.9c0.5 0.3 0.3 1.3-0.3 1.2q0.1 0 0.2 0.1 0 0.1 0.1 0.2 0 0.1 0 0.2 0 0.1 0 0.2-0.2 0.4-0.7 0.6c0.7 0.3 0.2 1.1-0.3 1.2-1.6 0.1-3.4 0-5.1 0 0-1.6-0.1-4.7-0.1-4.7z"/>
		<path id="Layer" class="s11" d="m310.9 120.6h-2.6v-4.7h2.6z"/>
	</g>
	<g id="Layer" style="opacity: .3">
		<path id="Layer" class="s46" d="m363.5 59.7l-5-2.7c-2.2 1.4-4.7 2.2-7.3 2.2-3.5 0-6.8-1.4-9.3-3.9-2.4-2.4-3.8-5.8-3.8-9.2 0-3.5 1.4-6.9 3.8-9.3 2.5-2.5 5.8-3.9 9.3-3.9 3.5 0 6.8 1.4 9.3 3.9 2.4 2.4 3.8 5.8 3.8 9.3 0 2.9-1 5.8-2.9 8.1z"/>
		<path id="Layer" class="s11" d="m345.7 42.5c0.6-0.6 1.4-0.9 2.2-0.9 0.9 0 1.7 0.3 2.3 0.9l0.8 0.9 0.9-0.9q0.4-0.4 1-0.6 0.6-0.3 1.2-0.3 0.7 0 1.2 0.3 0.6 0.2 1.1 0.7 0.4 0.4 0.7 1 0.2 0.6 0.2 1.2 0 0.7-0.3 1.3-0.2 0.6-0.7 1l-3.1 3.1c-0.4 0.4-1.1 0.7-1.7 0.8q-0.8 0.2-1.5-0.1-0.8-0.2-1.3-0.8l-3.1-3.1c-0.5-0.6-0.9-1.4-0.9-2.3 0-0.8 0.4-1.6 1-2.2z"/>
	</g>
	<path id="Layer" class="s47" d="m28.3 216.2q-0.1-0.1-0.2-0.3 0-0.2 0-0.3 0.1-0.2 0.2-0.4l7.7-11.3 4.2 2.4-7.1 12.1q-0.1 0.1-0.3 0.3-0.1 0.1-0.3 0.1-0.2 0-0.4 0-0.2 0-0.3-0.1l-3.3-2.2q-0.1-0.1-0.2-0.3z"/>
	<path id="Layer" class="s47" d="m19 192l16.5 7.4-1.9 2.8-19.6-2.9z"/>
	<path id="Layer" class="s47" d="m34.4 200.2c0.1 0.4 0.3 0.8 0.6 1l6.3 4.3c0.3 0.2 0.8 0.3 1.1 0.2 0.4-0.1 0.7-0.3 0.9-0.7l-2 3c-0.2 0.3-0.5 0.5-0.9 0.6-0.4 0.1-0.8 0.1-1.1-0.1l-6.3-4.3c-0.3-0.3-0.5-0.6-0.6-1 0-0.4 0.1-0.8 0.3-1.1l2.1-3c-0.3 0.4-0.4 0.8-0.4 1.1z"/>
</svg>