<svg width="543" height="591" viewBox="0 0 543 591" fill="none" xmlns="http://www.w3.org/2000/svg">
<circle cx="277" cy="266" r="266" fill="#007AFF"/>
<path d="M376.431 327.417V319.91H372.084C371.728 318.497 371.169 317.143 370.425 315.891L373.496 312.827L368.194 307.524L365.13 310.595C363.877 309.851 362.523 309.292 361.11 308.937V304.589H353.603V308.937C352.192 309.291 350.84 309.85 349.59 310.595L346.519 307.524L341.223 312.827L344.294 315.891C343.548 317.143 342.987 318.497 342.629 319.91H338.289V327.417H342.629C342.986 328.829 343.547 330.181 344.294 331.43L341.223 334.501L346.519 339.797L349.59 336.726C350.841 337.487 352.198 338.057 353.617 338.418V342.766H361.124V338.418C362.538 338.063 363.892 337.502 365.143 336.753L368.207 339.824L373.51 334.528L370.439 331.457C371.184 330.208 371.743 328.856 372.097 327.445L376.431 327.417ZM349.815 323.439C349.86 321.962 350.336 320.531 351.184 319.321C352.033 318.111 353.217 317.177 354.59 316.632C355.963 316.087 357.466 315.957 358.913 316.256C360.36 316.555 361.687 317.271 362.732 318.316C363.777 319.36 364.493 320.688 364.792 322.135C365.091 323.582 364.96 325.084 364.416 326.458C363.871 327.831 362.936 329.015 361.727 329.863C360.517 330.712 359.086 331.188 357.609 331.232C355.559 331.176 353.608 330.337 352.156 328.888C350.704 327.438 349.862 325.489 349.802 323.439H349.815Z" fill="#79FFFF"/>
<path d="M525.939 106.421V87.5721H515.02C514.122 84.015 512.71 80.6078 510.829 77.4582L518.568 69.7328L505.233 56.3978L497.487 64.1094C494.337 62.2352 490.933 60.824 487.38 59.9192V49H468.545V59.9192C464.991 60.8216 461.587 62.2329 458.438 64.1094L450.712 56.3841L437.377 69.7192L445.103 77.4445C443.227 80.5959 441.817 84.0026 440.919 87.5584H430V106.421H440.919C441.819 109.977 443.228 113.383 445.103 116.535L437.377 124.261L450.712 137.589L458.438 129.863C461.586 131.738 464.991 133.145 468.545 134.04V144.959H487.401V134.04C490.954 133.143 494.358 131.736 497.508 129.863L505.24 137.589L518.575 124.261L510.836 116.535C512.716 113.385 514.128 109.978 515.026 106.421H525.939ZM478.536 116.023C473.381 115.877 468.476 113.765 464.828 110.12C461.18 106.474 459.065 101.572 458.915 96.4166C459.025 92.6981 460.221 89.093 462.355 86.046C464.49 82.9991 467.469 80.6436 470.927 79.2702C474.384 77.8967 478.168 77.5654 481.811 78.3171C485.454 79.0687 488.798 80.8705 491.43 83.5002C494.061 86.1298 495.865 89.4722 496.619 93.1151C497.374 96.758 497.045 100.542 495.674 104C494.303 107.459 491.949 110.44 488.904 112.576C485.859 114.713 482.254 115.911 478.536 116.023Z" fill="#79FFFF"/>
<path opacity="0.51" d="M400.706 336.146V332.051H398.331C398.137 331.278 397.831 330.538 397.423 329.854L399.102 328.175L396.201 325.281L394.523 326.96C393.838 326.55 393.098 326.242 392.325 326.046V323.671H388.23V326.046C387.458 326.245 386.718 326.553 386.033 326.96L384.354 325.281L381.461 328.175L383.139 329.854C382.731 330.538 382.426 331.278 382.232 332.051H379.857V336.146H382.232C382.426 336.919 382.731 337.659 383.139 338.343L381.461 340.022L384.354 342.916L386.033 341.237C386.719 341.642 387.458 341.948 388.23 342.145V344.52H392.325V342.145C393.098 341.951 393.838 341.645 394.523 341.237L396.201 342.916L399.102 340.022L397.423 338.343C397.831 337.659 398.137 336.919 398.331 336.146H400.706ZM386.142 333.969C386.166 333.161 386.427 332.377 386.891 331.715C387.356 331.053 388.003 330.541 388.755 330.243C389.507 329.945 390.329 329.873 391.121 330.037C391.913 330.201 392.64 330.593 393.212 331.164C393.784 331.736 394.176 332.463 394.339 333.255C394.503 334.047 394.431 334.869 394.133 335.621C393.835 336.373 393.323 337.021 392.661 337.485C391.999 337.949 391.216 338.21 390.407 338.234C389.283 338.207 388.212 337.749 387.414 336.956C386.617 336.162 386.154 335.093 386.122 333.969H386.142Z" fill="#79FFFF"/>
<path d="M183.7 111.866H471.523V304.071C471.523 306.082 470.724 308.01 469.303 309.432C467.881 310.854 465.952 311.653 463.941 311.653H183.7V111.866Z" fill="#D4E4FF"/>
<path d="M457.089 279.974H322.053V282.253H457.089V279.974Z" fill="#D4E4FF"/>
<path d="M457.089 288.306H322.053V290.586H457.089V288.306Z" fill="#D4E4FF"/>
<path d="M457.089 296.646H322.053V298.925H457.089V296.646Z" fill="#D4E4FF"/>
<path d="M452.326 165.82H271.272C269.391 165.82 267.867 167.345 267.867 169.226V270.453C267.867 272.334 269.391 273.859 271.272 273.859H452.326C454.207 273.859 455.731 272.334 455.731 270.453V169.226C455.731 167.345 454.207 165.82 452.326 165.82Z" fill="#007AFF"/>
<path d="M471.523 111.866H183.7V134.414H471.523V111.866Z" fill="#FFBC3A"/>
<path d="M197.895 123.133C197.895 124.064 197.619 124.975 197.101 125.749C196.584 126.523 195.849 127.127 194.988 127.483C194.128 127.84 193.181 127.933 192.268 127.751C191.354 127.57 190.515 127.121 189.857 126.463C189.198 125.804 188.749 124.965 188.568 124.052C188.386 123.138 188.479 122.191 188.836 121.331C189.192 120.471 189.796 119.735 190.57 119.218C191.344 118.7 192.255 118.424 193.186 118.424C194.435 118.424 195.633 118.92 196.516 119.803C197.399 120.686 197.895 121.884 197.895 123.133Z" fill="#FFCA1C"/>
<path d="M196.339 123.133C196.34 123.758 196.156 124.37 195.809 124.891C195.463 125.412 194.969 125.818 194.392 126.058C193.814 126.298 193.178 126.361 192.564 126.239C191.951 126.117 191.387 125.816 190.945 125.374C190.503 124.932 190.202 124.368 190.08 123.754C189.958 123.141 190.021 122.505 190.261 121.927C190.501 121.35 190.907 120.856 191.428 120.51C191.949 120.163 192.561 119.979 193.186 119.98C194.022 119.98 194.824 120.312 195.416 120.903C196.007 121.495 196.339 122.297 196.339 123.133Z" fill="#33497F"/>
<path d="M211.155 123.133C211.155 124.064 210.879 124.975 210.362 125.749C209.844 126.523 209.109 127.127 208.248 127.483C207.388 127.84 206.441 127.933 205.528 127.751C204.614 127.57 203.775 127.121 203.116 126.463C202.458 125.804 202.009 124.965 201.828 124.052C201.646 123.138 201.739 122.191 202.096 121.331C202.452 120.471 203.056 119.735 203.83 119.218C204.604 118.7 205.515 118.424 206.446 118.424C207.065 118.423 207.678 118.544 208.249 118.781C208.821 119.017 209.34 119.364 209.778 119.801C210.215 120.239 210.562 120.758 210.798 121.33C211.035 121.902 211.156 122.514 211.155 123.133Z" fill="#FFCA1C"/>
<path d="M206.446 126.286C208.187 126.286 209.599 124.874 209.599 123.133C209.599 121.392 208.187 119.98 206.446 119.98C204.705 119.98 203.293 121.392 203.293 123.133C203.293 124.874 204.705 126.286 206.446 126.286Z" fill="#0ED0E9"/>
<path d="M224.422 123.133C224.422 124.064 224.146 124.975 223.628 125.749C223.111 126.523 222.375 127.127 221.515 127.483C220.654 127.84 219.708 127.933 218.794 127.751C217.881 127.57 217.042 127.121 216.383 126.463C215.725 125.804 215.276 124.965 215.094 124.052C214.913 123.138 215.006 122.191 215.362 121.331C215.719 120.471 216.322 119.735 217.097 119.218C217.871 118.7 218.781 118.424 219.713 118.424C220.962 118.424 222.159 118.92 223.043 119.803C223.926 120.686 224.422 121.884 224.422 123.133Z" fill="#FFCA1C"/>
<path d="M222.873 123.133C222.874 123.758 222.69 124.37 222.343 124.89C221.997 125.411 221.504 125.817 220.927 126.057C220.35 126.297 219.714 126.361 219.101 126.24C218.487 126.118 217.924 125.818 217.481 125.376C217.039 124.935 216.737 124.372 216.614 123.759C216.492 123.146 216.554 122.51 216.793 121.932C217.032 121.354 217.437 120.86 217.957 120.513C218.477 120.165 219.088 119.98 219.713 119.98C220.55 119.98 221.352 120.312 221.945 120.903C222.537 121.494 222.871 122.296 222.873 123.133Z" fill="#D4E4FF"/>
<path d="M299.566 101.185H320.04C320.565 101.185 321.068 101.394 321.439 101.765C321.81 102.136 322.019 102.64 322.019 103.165V111.866H299.566V101.185Z" fill="#D4E4FF"/>
<path d="M322.046 111.866H310.718L310.185 109.122L322.046 111.866Z" fill="#D6F0FF"/>
<path d="M266.42 92.8937H307.224C308.328 92.8937 309.387 93.3323 310.167 94.113C310.948 94.8937 311.387 95.9525 311.387 97.0566V111.866H266.42V92.8937Z" fill="#0ED0E9"/>
<path d="M311.386 111.866L292.66 108.051L294.953 111.866H311.386Z" fill="#00CCFF"/>
<path d="M183.7 85.0182H288.32C290.079 85.0182 291.766 85.7171 293.01 86.9611C294.254 88.2051 294.953 89.8923 294.953 91.6516V111.866H183.714V85.0182H183.7Z" fill="#33497F"/>
<path d="M294.953 111.866L183.7 102.741V111.866H294.953Z" fill="#0068F2"/>
<path d="M399.784 151.591H267.867V155.665H399.784V151.591Z" fill="#1A2258"/>
<path d="M320.504 140.508H267.867V144.582H320.504V140.508Z" fill="#1A2258"/>
<path d="M446.054 254.368H402.753V257.917H446.054V254.368Z" fill="#0ED0E9"/>
<path d="M446.054 262.032H402.753V265.581H446.054V262.032Z" fill="#0ED0E9"/>
<path d="M206.337 199.486V190.075H200.877C200.427 188.3 199.723 186.599 198.789 185.024L202.645 181.169L195.991 174.508L192.128 178.371C190.555 177.431 188.854 176.726 187.078 176.275V170.816H177.667V176.275C175.891 176.726 174.19 177.431 172.617 178.371L168.761 174.508L162.101 181.169L165.963 185.024C165.024 186.598 164.318 188.299 163.868 190.075H158.408V199.486H163.868C164.318 201.261 165.024 202.963 165.963 204.536L162.101 208.398L168.761 215.052L172.617 211.196C174.192 212.131 175.893 212.834 177.667 213.285V218.744H187.099V213.285C188.873 212.834 190.574 212.131 192.149 211.196L196.011 215.052L202.665 208.398L198.81 204.536C199.744 202.961 200.447 201.26 200.898 199.486H206.337ZM172.897 194.49C172.954 192.634 173.552 190.835 174.619 189.315C175.686 187.795 177.175 186.62 178.902 185.936C180.628 185.252 182.517 185.089 184.335 185.465C186.154 185.842 187.822 186.743 189.135 188.056C190.448 189.37 191.347 191.039 191.723 192.858C192.098 194.676 191.933 196.565 191.248 198.291C190.562 200.017 189.387 201.505 187.866 202.571C186.346 203.637 184.546 204.234 182.69 204.29C180.111 204.221 177.656 203.167 175.829 201.345C174.003 199.522 172.944 197.069 172.87 194.49H172.897Z" fill="#007AFF"/>
<path d="M220.116 165.24V160.756H217.522C217.308 159.914 216.973 159.107 216.526 158.361L218.362 156.525L215.195 153.352L213.359 155.188C212.61 154.744 211.801 154.411 210.957 154.198V151.598H206.48V154.198C205.637 154.412 204.828 154.746 204.078 155.188L202.242 153.352L199.076 156.525L200.911 158.361C200.465 159.107 200.129 159.914 199.915 160.756H197.335V165.24H199.929C200.144 166.085 200.479 166.894 200.925 167.642L199.089 169.478L202.256 172.645L204.092 170.809C204.84 171.254 205.649 171.587 206.494 171.798V174.399H210.984V171.798C211.829 171.588 212.639 171.255 213.387 170.809L215.222 172.645L218.389 169.478L216.553 167.642C216.999 166.894 217.335 166.085 217.55 165.24H220.116ZM204.201 162.858C204.228 161.975 204.513 161.12 205.02 160.397C205.528 159.674 206.236 159.115 207.058 158.79C207.879 158.465 208.777 158.387 209.642 158.566C210.507 158.746 211.301 159.175 211.925 159.8C212.549 160.425 212.977 161.219 213.155 162.084C213.333 162.949 213.254 163.848 212.928 164.669C212.601 165.49 212.042 166.197 211.318 166.703C210.594 167.21 209.738 167.494 208.855 167.519C207.629 167.488 206.463 166.987 205.596 166.119C204.73 165.252 204.23 164.084 204.201 162.858Z" fill="#007AFF"/>
<path d="M229.117 186.232V183.1H227.309C227.159 182.512 226.93 181.947 226.626 181.421L227.909 180.138L225.698 177.927L224.415 179.21C223.891 178.904 223.325 178.674 222.736 178.528V176.678H219.604V178.493C219.015 178.64 218.449 178.87 217.925 179.176L216.649 177.893L214.431 180.104L215.714 181.387C215.41 181.913 215.181 182.478 215.031 183.066H213.223V186.232H215.031C215.181 186.821 215.41 187.386 215.714 187.911L214.431 189.187L216.649 191.405L217.925 190.122C218.451 190.426 219.015 190.656 219.604 190.805V192.613H222.736V190.805C223.325 190.656 223.889 190.426 224.415 190.122L225.698 191.405L227.909 189.187L226.626 187.911C226.93 187.386 227.159 186.821 227.309 186.232H229.117ZM218 184.567C218.019 183.951 218.218 183.353 218.572 182.849C218.927 182.344 219.421 181.954 219.994 181.727C220.567 181.5 221.195 181.445 221.799 181.57C222.402 181.695 222.957 181.994 223.393 182.43C223.829 182.866 224.128 183.42 224.252 184.024C224.377 184.628 224.323 185.255 224.096 185.828C223.868 186.402 223.479 186.896 222.974 187.25C222.469 187.605 221.872 187.804 221.255 187.822C220.4 187.8 219.586 187.451 218.981 186.847C218.375 186.242 218.024 185.429 218 184.574V184.567Z" fill="#007AFF"/>
<path d="M267.553 559.785C267.553 570.199 244.875 578.641 216.901 578.641C188.928 578.641 166.243 570.199 166.243 559.785C166.243 549.37 188.921 540.935 216.901 540.935C244.882 540.935 267.553 549.377 267.553 559.785Z" fill="#D2EAFF"/>
<path d="M38.0177 386.92C39.0823 382.143 46.7803 374.554 59.0098 385.351C73.6416 398.263 88.2733 404.869 114.971 396.802L119.468 404.93C119.468 404.93 95.8485 426.857 53.9529 407.701C41.737 402.105 36.2774 394.809 38.0177 386.92Z" fill="#14AFFF"/>
<path d="M192.19 462.829L134.769 513.965C127.017 520.826 116.865 524.341 106.531 523.741C96.1962 523.142 86.519 518.476 79.6132 510.764C72.7511 503.014 69.2352 492.862 69.8336 482.528C70.4321 472.193 75.0962 462.515 82.8071 455.609L140.228 404.473C147.98 397.611 158.132 394.097 168.466 394.696C178.801 395.296 188.478 399.962 195.384 407.673C202.248 415.423 205.765 425.575 205.166 435.91C204.568 446.245 199.903 455.923 192.19 462.829Z" fill="#33497F"/>
<path d="M216.089 552.974C212.146 556.467 206.979 558.257 201.72 557.953C196.46 557.649 191.535 555.275 188.02 551.35L138.065 495.252C134.571 491.307 132.781 486.14 133.085 480.879C133.389 475.618 135.764 470.692 139.689 467.176C143.636 463.685 148.803 461.897 154.063 462.203C159.324 462.508 164.25 464.883 167.765 468.807L217.72 524.905C221.211 528.85 222.999 534.017 222.694 539.276C222.388 544.535 220.014 549.459 216.089 552.974Z" fill="#33497F"/>
<path d="M180.104 504.718L167.881 528.733L154.212 513.385L180.104 504.718Z" fill="#006EEC"/>
<path d="M206.303 519.95C204.362 521.67 201.818 522.552 199.228 522.403C196.639 522.253 194.214 521.084 192.483 519.152L168.98 492.755C167.262 490.814 166.381 488.271 166.531 485.684C166.68 483.096 167.848 480.672 169.778 478.942C171.719 477.224 174.261 476.343 176.849 476.493C179.437 476.642 181.861 477.81 183.591 479.74L207.102 506.137C208.818 508.079 209.697 510.621 209.548 513.208C209.398 515.796 208.232 518.219 206.303 519.95Z" fill="#1A2D66"/>
<path d="M205.382 506.888C206.648 505.753 207.413 504.163 207.512 502.465C207.61 500.767 207.034 499.099 205.907 497.825L191.733 481.904C190.597 480.638 189.007 479.872 187.31 479.774C185.612 479.675 183.944 480.252 182.67 481.378C181.402 482.513 180.635 484.103 180.537 485.801C180.438 487.5 181.016 489.168 182.144 490.441L196.319 506.363C197.454 507.629 199.044 508.395 200.742 508.493C202.44 508.591 204.108 508.015 205.382 506.888Z" fill="#13C9E7"/>
<path d="M154.464 316.423C154.464 316.423 131.855 384.184 79.77 428.42C66.3803 440.342 73.8122 470.534 96.333 495.86C118.854 521.185 148.022 532.029 161.405 520.121C211.36 473.489 281.277 458.857 281.277 458.857L237.259 370.384L154.464 316.423Z" fill="#D4E4FF"/>
<g style="mix-blend-mode:multiply" opacity="0.3">
<path d="M154.464 316.423C154.464 316.423 150.758 327.527 142.863 343.68C153.734 366.883 169.328 390.571 189.331 413.037C209.333 435.504 231.09 453.732 252.86 467.204C269.812 461.259 281.27 458.857 281.27 458.857L237.259 370.384L154.464 316.423Z" fill="#86C0FF"/>
</g>
<path d="M162.763 286.737C135.908 310.622 147.585 366.133 189.378 413.038C231.171 459.942 284.921 477.959 311.769 454.039C338.616 430.119 326.947 374.643 285.153 327.738C243.36 280.833 189.624 262.817 162.763 286.737Z" fill="#33497F"/>
<path d="M301.509 440.942C322.306 422.425 310.776 375.528 275.755 336.194C240.734 296.86 195.485 279.984 174.688 298.501C153.891 317.018 165.421 363.915 200.442 403.249C235.462 442.583 280.712 459.459 301.509 440.942Z" fill="#1A2D66"/>
<path d="M195.513 290.954C187.324 291.166 180.131 293.568 174.665 298.461C153.87 316.976 165.404 363.874 200.427 403.21C174.61 374.186 174.18 329.868 195.513 290.954Z" fill="#1A2258"/>
<path d="M200.427 403.183C235.451 442.513 280.704 459.39 301.498 440.868C306.958 436.002 310.179 429.157 311.339 421.022C270.221 437.715 226.251 432.173 200.427 403.183Z" fill="#1A2258"/>
<path d="M169.478 352.497C175.258 368.965 185.782 386.729 200.427 403.183C215.489 420.094 232.434 432.835 248.519 440.417L270.76 383.419L240.958 354.347L227.247 336.071L170.986 352.068C170.474 352.204 169.969 352.341 169.478 352.497Z" fill="#FF5F49"/>
<path d="M180.036 349.508L170.986 352.067C170.474 352.19 169.969 352.327 169.478 352.484C175.258 368.951 185.782 386.715 200.427 403.169C215.489 420.08 232.434 432.822 248.519 440.404L252.396 430.474C190.511 418.163 181.319 367.368 180.036 349.508Z" fill="#FFA11C"/>
<path d="M260.121 350.02C272.05 363.417 275.981 379.366 268.897 385.705C261.814 392.045 246.377 386.265 234.468 372.869C222.559 359.472 218.601 343.523 225.685 337.183C232.769 330.843 248.185 336.631 260.121 350.02Z" fill="#FFBC3A"/>
<path d="M258.531 351.44C266.959 360.905 269.73 372.186 264.728 376.643C259.725 381.099 248.84 377.038 240.412 367.573C231.984 358.107 229.213 346.833 234.215 342.377C239.218 337.92 250.103 341.981 258.531 351.44Z" fill="#33497F"/>
<path d="M253.617 355.814C257.48 360.148 258.749 365.314 256.456 367.354C254.163 369.395 249.181 367.532 245.325 363.205C241.47 358.878 240.193 353.705 242.487 351.665C244.78 349.624 249.761 351.481 253.617 355.814Z" fill="#13C9E7"/>
<path opacity="0.54" d="M267.58 342.67C278.315 354.722 281.85 369.102 275.476 374.745C269.102 380.389 255.228 375.25 244.493 363.198C233.758 351.146 230.223 336.767 236.597 331.089C242.971 325.411 256.845 330.611 267.58 342.67Z" fill="#6AFFFF"/>
<path opacity="0.54" d="M302.574 371.822C312.665 362.837 307.071 340.081 290.078 320.995C273.085 301.909 251.129 293.721 241.037 302.706C230.945 311.691 236.54 334.447 253.533 353.533C270.525 372.619 292.482 380.807 302.574 371.822Z" fill="#6AFFFF"/>
<path opacity="0.54" d="M287.194 322.49C293.158 329.192 295.124 337.183 291.582 340.336C288.04 343.489 280.328 340.616 274.364 333.915C268.399 327.213 266.434 319.228 269.976 316.075C273.517 312.922 281.222 315.795 287.194 322.49Z" fill="#6AFFFF"/>
<path d="M193.029 510C192.725 510.27 192.326 510.409 191.919 510.386C191.512 510.363 191.132 510.18 190.859 509.877L186.642 505.141C186.372 504.836 186.233 504.437 186.256 504.031C186.279 503.624 186.462 503.243 186.765 502.971C187.069 502.701 187.468 502.562 187.875 502.585C188.282 502.608 188.662 502.791 188.935 503.094L193.152 507.83C193.422 508.135 193.561 508.534 193.538 508.94C193.515 509.347 193.332 509.728 193.029 510Z" fill="#13C9E7"/>
<path d="M194.346 514.293C194.58 514.555 194.886 514.741 195.225 514.83C195.565 514.918 195.923 514.903 196.255 514.788C196.586 514.672 196.876 514.461 197.087 514.181C197.299 513.9 197.422 513.564 197.442 513.213C197.462 512.863 197.378 512.514 197.2 512.212C197.022 511.91 196.758 511.667 196.442 511.514C196.126 511.362 195.772 511.306 195.424 511.355C195.077 511.404 194.751 511.554 194.49 511.788C194.139 512.101 193.926 512.541 193.899 513.011C193.873 513.48 194.033 513.941 194.346 514.293Z" fill="#13C9E7"/>
<path d="M86.7787 422.141C85.6458 423.206 84.5084 424.257 83.3665 425.294C83.3665 467.204 107.9 504.718 164.981 516.947C166.148 515.91 167.328 514.9 168.509 513.897C118.062 499.477 91.5559 473.543 86.7787 422.141Z" fill="#1A2D66"/>
<path d="M119.598 383.658C112.797 393.547 105.291 402.932 97.1387 411.741C100.892 455.049 131.486 494.133 180.002 504.793C189.692 497.713 199.88 491.34 210.487 485.725C156.389 473.544 125.897 433.006 119.598 383.658Z" fill="#1A2D66"/>
<path d="M384.538 415.918C384.535 417.377 383.953 418.776 382.921 419.808C381.889 420.84 380.49 421.421 379.031 421.425H343.81C342.35 421.421 340.951 420.84 339.919 419.808C338.887 418.776 338.306 417.377 338.302 415.918C338.306 414.457 338.887 413.058 339.919 412.025C340.951 410.992 342.349 410.409 343.81 410.403H379.031C380.491 410.409 381.89 410.992 382.922 412.025C383.954 413.058 384.535 414.457 384.538 415.918Z" fill="#6AFFFF"/>
<path d="M373.21 375.012C373.927 376.28 374.114 377.78 373.731 379.186C373.347 380.592 372.424 381.79 371.162 382.518L340.657 400.132C339.388 400.85 337.888 401.037 336.482 400.653C335.076 400.27 333.879 399.347 333.15 398.085C332.433 396.817 332.246 395.316 332.629 393.91C333.013 392.505 333.936 391.307 335.197 390.578L365.703 372.971C366.97 372.252 368.47 372.062 369.877 372.445C371.283 372.827 372.481 373.75 373.21 375.012Z" fill="#6AFFFF"/>
<path d="M373.21 459.151C373.927 457.882 374.114 456.382 373.731 454.976C373.347 453.57 372.424 452.373 371.162 451.644L340.657 434.037C339.392 433.317 337.895 433.124 336.49 433.501C335.085 433.878 333.884 434.794 333.15 436.05C332.433 437.318 332.246 438.819 332.629 440.225C333.013 441.63 333.936 442.828 335.197 443.557L365.703 461.171C366.968 461.892 368.466 462.084 369.872 461.706C371.278 461.328 372.478 460.409 373.21 459.151Z" fill="#6AFFFF"/>
<path d="M108.59 86.7926H74.5493V128.579H108.59V86.7926Z" fill="#131637"/>
<path d="M77.4294 136.413C84.2853 136.413 89.8431 130.856 89.8431 124C89.8431 117.144 84.2853 111.586 77.4294 111.586C70.5735 111.586 65.0156 117.144 65.0156 124C65.0156 130.856 70.5735 136.413 77.4294 136.413Z" fill="#131637"/>
<path d="M118.124 124C118.124 126.455 117.396 128.855 116.032 130.896C114.668 132.938 112.729 134.529 110.46 135.469C108.192 136.408 105.696 136.654 103.288 136.175C100.88 135.696 98.6682 134.514 96.9321 132.778C95.196 131.041 94.0137 128.83 93.5347 126.422C93.0557 124.013 93.3015 121.517 94.2411 119.249C95.1806 116.981 96.7717 115.042 98.8132 113.678C100.855 112.314 103.255 111.586 105.71 111.586C107.34 111.585 108.955 111.906 110.462 112.529C111.968 113.153 113.337 114.067 114.49 115.22C115.643 116.373 116.557 117.742 117.181 119.248C117.804 120.755 118.125 122.369 118.124 124Z" fill="#131637"/>
<path d="M122.184 132.783C122.184 135.473 121.386 138.102 119.891 140.338C118.396 142.574 116.272 144.317 113.786 145.345C111.3 146.373 108.566 146.641 105.928 146.114C103.29 145.587 100.868 144.29 98.9677 142.386C97.0675 140.482 95.775 138.057 95.2535 135.418C94.7321 132.779 95.0051 130.045 96.0383 127.561C97.0714 125.078 98.8181 122.957 101.057 121.466C103.296 119.976 105.927 119.183 108.617 119.188C112.219 119.194 115.67 120.629 118.214 123.178C120.758 125.727 122.186 129.181 122.184 132.783Z" fill="#131637"/>
<path d="M86.315 132.783C86.315 135.471 85.5177 138.1 84.024 140.335C82.5302 142.571 80.407 144.313 77.923 145.342C75.4389 146.371 72.7055 146.64 70.0685 146.116C67.4314 145.591 65.0092 144.297 63.108 142.395C61.2067 140.494 59.912 138.072 59.3874 135.435C58.8629 132.798 59.1321 130.064 60.1611 127.58C61.19 125.096 62.9324 122.973 65.168 121.479C67.4036 119.986 70.0319 119.188 72.7207 119.188C76.3261 119.188 79.7839 120.62 82.3333 123.17C84.8828 125.719 86.315 129.177 86.315 132.783Z" fill="#131637"/>
<path d="M108.098 113.852C109.802 113.852 111.183 112.471 111.183 110.767C111.183 109.063 109.802 107.682 108.098 107.682C106.395 107.682 105.014 109.063 105.014 110.767C105.014 112.471 106.395 113.852 108.098 113.852Z" fill="#131637"/>
<path d="M77.5793 110.767C77.5806 111.377 77.4009 111.974 77.0627 112.483C76.7246 112.991 76.2433 113.387 75.6798 113.622C75.1163 113.856 74.4958 113.918 73.897 113.8C73.2982 113.682 72.7479 113.388 72.3158 112.957C71.8837 112.526 71.5893 111.977 71.4697 111.378C71.3501 110.78 71.4108 110.159 71.6441 109.595C71.8774 109.031 72.2727 108.549 72.7801 108.209C73.2876 107.87 73.8842 107.689 74.4946 107.689C75.3115 107.689 76.0951 108.013 76.6734 108.59C77.2517 109.167 77.5775 109.95 77.5793 110.767Z" fill="#131637"/>
<path d="M79.4629 119.741C79.4629 119.741 60.6136 134.68 57.2081 153.707C52.9565 177.422 69.2124 187.679 69.2124 187.679L71.2052 175.722C71.2052 175.722 65.7456 168.099 66.6533 161.609C67.8339 153.27 74.2284 147.189 74.2284 147.189C74.2284 147.189 82.5953 134.427 79.4629 119.741Z" fill="#14AFFF"/>
<path d="M74.9314 136.516L78.7394 120.396C78.7394 120.396 63.7255 132.946 67.2333 158.893C68.6006 154.496 70.9962 150.489 74.2216 147.203C74.2216 147.203 74.3035 147.012 74.44 146.65L74.9314 136.516Z" fill="#0091F4"/>
<path d="M99.9093 117.987C99.9093 117.987 95.0776 125.494 96.2377 138.133C96.2377 138.133 132.489 136.768 154.928 100.4L149.244 95.1456C149.244 95.1456 122.423 121.625 99.9093 117.987Z" fill="#14AFFF"/>
<path d="M152.123 93.4192C152.123 93.4192 152.349 89.536 152.915 88.294C152.915 88.294 154.798 81.5718 155.16 80.5482C155.16 80.5482 156.798 80.3025 156.819 82.3225C156.775 83.8389 156.572 85.3464 156.211 86.8199C157.404 85.6965 158.423 84.4015 159.234 82.9777C160.053 81.2101 161.78 77.7774 162.913 77.3543C164.046 76.9312 164.093 78.2005 164.093 78.2005C164.093 78.2005 161.446 83.469 160.886 84.6019C160.395 85.6051 160.947 85.5505 160.947 85.5505L166.114 79.3061C166.898 78.3575 167.717 78.4394 168.297 79.3948C168.297 79.3948 165.977 82.2406 164.708 84.1105C164.264 84.7589 162.36 86.697 163.124 87.1543C163.124 87.1543 167.349 83.005 167.977 82.2202C168.082 82.0389 168.243 81.8963 168.436 81.8131C168.628 81.7299 168.843 81.7106 169.047 81.7579C169.251 81.8051 169.435 81.9166 169.572 82.0759C169.708 82.2352 169.79 82.4341 169.806 82.6433L164.503 88.7171C164.503 88.7171 164.216 89.2084 164.598 89.2903C164.981 89.3722 168.202 87.4614 168.495 87.1679C168.789 86.8745 169.785 86.035 170.351 86.9427C170.351 86.9427 170.502 87.2771 169.573 88.0824C168.645 88.8877 164.401 92.8254 164.401 92.8254C162.566 94.7551 160.323 96.2498 157.835 97.1999C153.775 98.7013 152.505 97.5207 154.833 98.3533L153.741 96.265L152.123 93.4192Z" fill="#FFCDA9"/>
<path d="M157.856 97.3158L152.075 92.2179L149.25 95.1115L154.942 100.366L157.856 97.3158Z" fill="#0ED0E9"/>
<path d="M101.11 118.206C101.11 118.206 109.3 122.764 114.472 133.902C112.524 134.521 110.618 135.266 108.767 136.134L103.915 130.544" fill="#0091F4"/>
<path d="M112.562 141.928C112.562 133.172 105.014 117.359 98.0663 117.359H85.284C74.8766 117.359 69.5876 138.147 69.5876 141.621C69.5876 144.446 73.539 147.046 73.6823 150.295C74.1396 159.037 73.4025 169.744 74.4603 181.503C74.4603 181.503 78.0432 188.764 91.6376 187.236C105.239 188.764 106.481 182.144 106.481 182.144C107.545 170.297 107.996 158.798 108.446 150.008C108.965 146.65 112.562 145.592 112.562 141.928Z" fill="#0ED0E9"/>
<path d="M99.1448 138.706H108.808V135.867H99.1448V138.706Z" fill="#14AFFF"/>
<path d="M92.8728 123.119H91.1803L91.1871 123.645L90.4706 123.119L85.2839 164.401L91.6717 165.909L98.0662 164.401L92.8728 123.119Z" fill="#001F78"/>
<g style="mix-blend-mode:multiply" opacity="0.51">
<path d="M73.8804 155.754C74.1875 160.77 74.6038 166.202 75.0883 172.092L85.1817 173.457L109.184 170.966C110.311 169.927 111.356 168.802 112.309 167.601C112.644 163.343 112.93 159.351 113.162 155.59C94.0468 161.862 78.4869 157.406 73.8804 155.754Z" fill="#3BD2FF"/>
</g>
<path d="M88.3572 122.339L91.6627 119.033L94.9683 122.339L92.155 125.152C92.027 125.28 91.8534 125.352 91.6724 125.352C91.4914 125.352 91.3178 125.28 91.1898 125.152L88.3668 122.329L88.3572 122.339Z" fill="#003591"/>
<path d="M98.1414 96.5721C98.1427 97.4734 98.4112 98.3541 98.913 99.1029C99.4147 99.8517 100.127 100.435 100.96 100.779C101.793 101.123 102.71 101.212 103.594 101.036C104.478 100.859 105.289 100.424 105.926 99.7864C106.563 99.1485 106.996 98.3362 107.172 97.4521C107.347 96.568 107.256 95.6517 106.911 94.8191C106.566 93.9865 105.982 93.2749 105.232 92.7743C104.483 92.2737 103.601 92.0065 102.7 92.0065C102.101 92.0065 101.508 92.1246 100.954 92.3541C100.4 92.5837 99.8976 92.9201 99.4741 93.3441C99.0507 93.7682 98.7151 94.2715 98.4864 94.8254C98.2577 95.3793 98.1405 95.9728 98.1414 96.5721Z" fill="#FFB59C"/>
<path d="M99.6497 96.572C99.6497 97.177 99.8292 97.7684 100.165 98.2713C100.502 98.7743 100.98 99.1661 101.539 99.3973C102.098 99.6285 102.713 99.6887 103.306 99.5701C103.899 99.4516 104.444 99.1598 104.871 98.7315C105.299 98.3032 105.589 97.7578 105.706 97.1643C105.824 96.5708 105.762 95.9558 105.53 95.3973C105.297 94.8387 104.904 94.3617 104.401 94.0266C103.897 93.6915 103.305 93.5133 102.7 93.5147C102.299 93.5147 101.902 93.5938 101.531 93.7475C101.161 93.9013 100.824 94.1266 100.541 94.4105C100.257 94.6945 100.033 95.0316 99.8799 95.4025C99.727 95.7734 99.6488 96.1708 99.6497 96.572Z" fill="#FF9F7C"/>
<path d="M75.7639 96.5721C75.7653 97.4734 76.0338 98.3541 76.5356 99.1029C77.0373 99.8517 77.7497 100.435 78.5829 100.779C79.416 101.123 80.3324 101.212 81.2162 101.036C82.1001 100.859 82.9117 100.424 83.5486 99.7864C84.1855 99.1485 84.619 98.3362 84.7943 97.4521C84.9697 96.568 84.879 95.6517 84.5338 94.8191C84.1886 93.9865 83.6042 93.2749 82.8547 92.7743C82.1052 92.2737 81.224 92.0065 80.3227 92.0065C79.7234 92.0065 79.1301 92.1246 78.5766 92.3541C78.023 92.5837 77.5202 92.9201 77.0967 93.3441C76.6733 93.7682 76.3377 94.2715 76.109 94.8254C75.8803 95.3793 75.763 95.9728 75.7639 96.5721Z" fill="#FFB59C"/>
<path d="M77.2722 96.572C77.2722 97.177 77.4517 97.7684 77.788 98.2713C78.1242 98.7743 78.6021 99.1661 79.1612 99.3973C79.7202 99.6285 80.3353 99.6887 80.9286 99.5701C81.5218 99.4516 82.0666 99.1598 82.4939 98.7315C82.9212 98.3032 83.2119 97.7578 83.329 97.1643C83.4462 96.5708 83.3847 95.9558 83.1523 95.3973C82.9198 94.8387 82.5269 94.3617 82.0232 94.0266C81.5195 93.6915 80.9277 93.5133 80.3228 93.5147C79.9216 93.5147 79.5243 93.5938 79.1538 93.7475C78.7832 93.9013 78.4466 94.1266 78.1633 94.4105C77.8799 94.6945 77.6554 95.0316 77.5025 95.4025C77.3496 95.7734 77.2713 96.1708 77.2722 96.572Z" fill="#FF9F7C"/>
<path d="M99.022 104.475H84.3083V119.188H99.022V104.475Z" fill="#FFB899"/>
<path d="M92.9207 77.2723L90.9484 78.1322L90.4093 77.2723L79.3809 85.5914V100.721C81.6398 110.385 91.665 114.37 91.665 114.37C91.665 114.37 101.69 110.385 103.949 100.721V85.5914L92.9207 77.2723Z" fill="#FFCDA9"/>
<path d="M93.3372 101.506L91.6652 94.5247L89.9932 101.506H93.3372Z" fill="#FF907D"/>
<path d="M91.6652 109.04C93.0191 109.04 94.3175 108.503 95.2748 107.545C96.2321 106.588 96.7699 105.29 96.7699 103.936H86.5332C86.5332 104.608 86.6661 105.274 86.9244 105.895C87.1826 106.517 87.5611 107.081 88.038 107.555C88.5149 108.029 89.0808 108.405 89.7033 108.66C90.3258 108.915 90.9925 109.044 91.6652 109.04Z" fill="#D4E4FF"/>
<path d="M91.6719 119.188L86.8947 124C86.8947 124 79.6335 120.99 83.9534 114.118C85.9311 116.575 88.6312 118.349 91.6719 119.188Z" fill="#14AFFF"/>
<path d="M91.6719 119.188L96.4831 124C96.4831 124 103.738 120.99 99.4177 114.118C97.4343 116.582 94.7235 118.356 91.6719 119.188Z" fill="#14AFFF"/>
<path d="M66.0252 149.23H117.318C117.695 149.23 118.056 149.379 118.322 149.645C118.588 149.912 118.738 150.273 118.738 150.649V185.686H64.6057V150.642C64.6075 150.267 64.7579 149.908 65.0239 149.643C65.2899 149.378 65.6499 149.23 66.0252 149.23Z" fill="#D4E4FF"/>
<path d="M91.5559 183.093C83.9038 175.859 74.6722 170.506 64.5923 167.458V172.495L91.5559 183.093Z" fill="url(#paint0_linear_27_1751)"/>
<path d="M91.7742 183.093C99.4262 175.859 108.658 170.506 118.738 167.458V172.495L91.7742 183.093Z" fill="url(#paint1_linear_27_1751)"/>
<path d="M54.3418 196.606V203.635C54.3418 203.635 92.948 199.472 120.853 193.227C120.853 193.227 133.561 189.31 149.428 180.466C149.428 180.466 147.605 167.199 131.998 167.458C116.39 167.717 92.3201 182.82 92.3201 182.82L54.3418 196.606Z" fill="#002A88"/>
<path d="M91.7742 198.612L90.7846 198.428L62.2923 193.227L54.3418 196.612V203.635" fill="#001F5F"/>
<path d="M120.854 193.227L129.35 185.686L149.428 180.466C149.428 180.466 139.123 189.645 120.854 193.227Z" fill="#001F5F"/>
<path d="M128.804 196.606V203.635C128.804 203.635 90.1978 199.472 62.2924 193.227C51.2347 190.248 40.5704 185.964 30.5244 180.466C30.5244 180.466 32.3465 167.199 47.9542 167.458C63.5618 167.717 90.8325 182.82 90.8325 182.82L128.804 196.606Z" fill="#003591"/>
<path d="M62.2924 193.227L53.7959 185.686L30.5244 180.466C40.2552 186.605 51.0187 190.929 62.2924 193.227Z" fill="#001F5F"/>
<path d="M54.3419 203.635C54.3419 203.635 47.4014 204.87 30.5244 205.812V200.031L48.7049 194.278L54.3419 196.605V203.635Z" fill="#000F1F"/>
<path d="M128.804 203.635C128.804 203.635 135.744 204.87 152.621 205.812V200.031L134.441 194.278L128.804 196.605V203.635Z" fill="#000F1F"/>
<path d="M97.9849 81.8175C97.9849 81.8175 94.4703 91.3718 82.6366 89.2425C82.6366 89.2425 83.0052 92.0747 78.8627 93.2417V90.6893L75.0956 88.0823L74.7202 86.8539L77.2248 78.8829L85.346 77.2723L91.761 78.4052H102.127L106.345 82.1246L104.461 90.8053V93.2212C104.461 93.2212 101.322 92.2931 101.643 88.444C101.643 88.4099 97.8757 85.1819 97.9849 81.8175Z" fill="#131637"/>
<path d="M74.5493 87.0451C74.5493 87.0451 74.4947 64.2444 98.0324 74.0785C98.0324 74.0785 108.597 71.8128 108.597 85.4072V87.0178L108.099 88.9832L100.79 84.3562L95.3913 80.4594L89.9317 81.0327L74.5493 87.0451Z" fill="#131637"/>
<path d="M123.795 38.9049H183.127C187.592 38.9067 191.873 40.6811 195.03 43.8381C198.187 46.995 199.961 51.2763 199.963 55.7409C199.961 60.205 198.187 64.4855 195.029 67.6414C191.872 70.7973 187.591 72.5702 183.127 72.5702H133.069L121.734 82.4998V72.3654C119.36 71.8892 117.225 70.6058 115.691 68.7334C114.157 66.861 113.319 64.5151 113.319 62.0946V49.3805C113.319 46.6022 114.423 43.9377 116.387 41.9731C118.352 40.0086 121.016 38.9049 123.795 38.9049Z" fill="#33497F"/>
<path d="M134.059 56.0686C134.058 57.1022 133.75 58.1123 133.175 58.971C132.599 59.8298 131.782 60.4988 130.827 60.8934C129.872 61.288 128.821 61.3905 127.807 61.1881C126.794 60.9856 125.863 60.4872 125.132 59.7558C124.402 59.0245 123.905 58.093 123.704 57.0791C123.503 56.0653 123.606 55.0145 124.002 54.0597C124.398 53.1049 125.068 52.2889 125.928 51.7148C126.787 51.1407 127.798 50.8342 128.831 50.8342C129.518 50.8342 130.199 50.9697 130.833 51.2328C131.468 51.4959 132.045 51.8816 132.53 52.3678C133.016 52.8539 133.401 53.431 133.663 54.066C133.925 54.701 134.06 55.3815 134.059 56.0686Z" fill="#0ED0E9"/>
<path d="M152.123 56.0686C152.122 57.1022 151.814 58.1123 151.239 58.971C150.664 59.8298 149.847 60.4988 148.892 60.8934C147.936 61.288 146.885 61.3905 145.872 61.1881C144.858 60.9856 143.927 60.4872 143.197 59.7558C142.467 59.0245 141.969 58.093 141.768 57.0791C141.567 56.0653 141.671 55.0145 142.067 54.0597C142.463 53.1049 143.133 52.2889 143.992 51.7148C144.852 51.1407 145.862 50.8342 146.896 50.8342C147.583 50.8342 148.263 50.9697 148.898 51.2328C149.533 51.4959 150.109 51.8816 150.595 52.3678C151.08 52.8539 151.465 53.431 151.727 54.066C151.99 54.701 152.124 55.3815 152.123 56.0686Z" fill="#0ED0E9"/>
<path d="M170.195 56.0686C170.195 57.1039 169.888 58.1159 169.312 58.9767C168.737 59.8375 167.92 60.5084 166.963 60.9046C166.007 61.3007 164.954 61.4044 163.939 61.2024C162.924 61.0005 161.991 60.5019 161.259 59.7699C160.527 59.0378 160.028 58.1052 159.826 57.0898C159.624 56.0744 159.728 55.022 160.124 54.0655C160.52 53.109 161.191 52.2915 162.052 51.7164C162.913 51.1412 163.925 50.8342 164.96 50.8342C166.349 50.8342 167.68 51.3857 168.662 52.3673C169.643 53.349 170.195 54.6804 170.195 56.0686Z" fill="#0ED0E9"/>
<path opacity="0.48" d="M383.235 300.959C387.769 300.959 391.445 297.283 391.445 292.749C391.445 288.215 387.769 284.539 383.235 284.539C378.701 284.539 375.025 288.215 375.025 292.749C375.025 297.283 378.701 300.959 383.235 300.959Z" fill="#A2FFFF"/>
<path d="M365.555 255.404C382.882 248.227 391.11 228.362 383.933 211.035C376.756 193.707 356.891 185.479 339.564 192.656C322.237 199.833 314.008 219.698 321.186 237.025C328.363 254.353 348.228 262.581 365.555 255.404Z" fill="#E9280E"/>
<path d="M349.679 241.586L367.566 228.619C368.295 228.091 368.888 227.397 369.297 226.595C369.706 225.793 369.919 224.906 369.919 224.006C369.919 223.106 369.706 222.218 369.297 221.416C368.888 220.614 368.295 219.921 367.566 219.392L349.679 206.426C348.829 205.811 347.826 205.443 346.78 205.362C345.734 205.281 344.686 205.491 343.752 205.968C342.818 206.445 342.034 207.172 341.486 208.067C340.939 208.961 340.65 209.99 340.65 211.039V236.931C340.642 237.984 340.926 239.018 341.47 239.919C342.015 240.82 342.798 241.552 343.734 242.034C344.669 242.516 345.72 242.73 346.77 242.651C347.819 242.571 348.826 242.203 349.679 241.586Z" fill="#D4E4FF"/>
<path opacity="0.54" d="M523.798 489.854C523.798 498.842 504.212 506.131 480.06 506.131C455.908 506.131 436.322 498.842 436.322 489.854C436.322 480.866 455.902 473.544 480.06 473.544C504.219 473.544 523.798 480.86 523.798 489.854Z" fill="#6AFFFF"/>
<path opacity="0.58" d="M480.06 502.459C504.216 502.459 523.799 495.169 523.799 486.176C523.799 477.183 504.216 469.893 480.06 469.893C455.905 469.893 436.322 477.183 436.322 486.176C436.322 495.169 455.905 502.459 480.06 502.459Z" fill="#8EFFFF"/>
<path d="M462.003 315.481L412.744 266.222C409.85 273.689 404.685 280.058 397.976 284.43L445.522 331.976C447.715 334.156 450.681 335.379 453.773 335.379C456.865 335.379 459.831 334.156 462.024 331.976C464.2 329.782 465.42 326.815 465.416 323.725C465.412 320.634 464.185 317.67 462.003 315.481Z" fill="#1A2D66"/>
<path d="M422.592 263.11C421.483 262.01 420.044 261.303 418.496 261.1C416.947 260.897 415.375 261.207 414.02 261.984C411.625 272.268 404.322 281.27 394.973 286.211C393.72 286.865 392.42 287.424 391.083 287.883C391.142 289.265 391.603 290.6 392.41 291.724C393.216 292.848 394.333 293.711 395.624 294.209C396.915 294.707 398.323 294.817 399.675 294.526C401.028 294.235 402.266 293.556 403.237 292.571L422.592 273.21C423.925 271.868 424.674 270.052 424.674 268.16C424.674 266.268 423.925 264.452 422.592 263.11Z" fill="#FFBC3A"/>
<path d="M352.559 145.415C340.469 145.412 328.542 148.198 317.705 153.555C306.867 158.912 297.411 166.696 290.071 176.302C282.732 185.908 277.706 197.078 275.386 208.942C273.065 220.807 273.512 233.047 276.691 244.71C279.871 256.374 285.698 267.147 293.718 276.193C301.739 285.238 311.738 292.312 322.937 296.864C334.136 301.417 346.235 303.325 358.292 302.441C370.349 301.557 382.039 297.904 392.455 291.766C395.115 290.204 397.679 288.484 400.132 286.614C406.356 281.878 411.841 276.243 416.409 269.894C418.209 267.404 419.855 264.806 421.336 262.114C427.96 250.145 431.347 236.655 431.162 222.976C430.977 209.298 427.227 195.904 420.281 184.119C413.335 172.334 403.435 162.565 391.558 155.777C379.681 148.989 366.238 145.418 352.559 145.415ZM352.559 157.549C365.707 157.553 378.56 161.456 389.491 168.764C400.421 176.072 408.94 186.457 413.968 198.607C418.997 210.756 420.31 224.123 417.742 237.019C415.174 249.914 408.84 261.759 399.54 271.054C390.241 280.35 378.394 286.679 365.497 289.242C352.6 291.805 339.234 290.486 327.086 285.453C314.939 280.419 304.558 271.897 297.254 260.963C289.95 250.029 286.053 237.175 286.054 224.026C286.061 206.395 293.072 189.488 305.544 177.025C318.016 164.562 334.927 157.564 352.559 157.569V157.549Z" fill="#D4E4FF"/>
<path d="M352.559 154.839C338.876 154.839 325.501 158.897 314.125 166.498C302.748 174.1 293.881 184.904 288.645 197.545C283.409 210.186 282.039 224.096 284.708 237.516C287.378 250.935 293.966 263.262 303.641 272.937C313.316 282.612 325.643 289.201 339.063 291.87C352.482 294.539 366.392 293.169 379.033 287.933C391.674 282.697 402.478 273.83 410.08 262.454C417.681 251.077 421.739 237.702 421.739 224.019C421.739 214.935 419.949 205.939 416.473 197.545C412.996 189.152 407.9 181.526 401.476 175.102C395.052 168.678 387.426 163.582 379.033 160.105C370.64 156.629 361.644 154.839 352.559 154.839ZM352.559 290.504C339.409 290.504 326.555 286.604 315.622 279.299C304.689 271.994 296.167 261.61 291.135 249.462C286.103 237.313 284.787 223.946 287.352 211.049C289.917 198.152 296.249 186.306 305.547 177.008C314.845 167.71 326.692 161.378 339.588 158.813C352.485 156.247 365.853 157.564 378.001 162.596C390.15 167.628 400.533 176.149 407.838 187.083C415.144 198.016 419.043 210.87 419.043 224.019C419.044 232.751 417.325 241.397 413.984 249.464C410.644 257.531 405.746 264.861 399.573 271.035C393.399 277.21 386.069 282.107 378.003 285.449C369.936 288.791 361.29 290.51 352.559 290.51V290.504Z" fill="#DAEBFF"/>
<path opacity="0.22" d="M366.571 198.221C369.956 183.882 361.075 169.514 346.736 166.13C332.396 162.745 318.028 171.626 314.644 185.965C311.26 200.304 320.14 214.672 334.48 218.057C348.819 221.441 363.187 212.56 366.571 198.221Z" fill="#A2FFFF"/>
<path opacity="0.48" d="M378.676 178.043C378.676 179.258 378.316 180.445 377.641 181.455C376.966 182.465 376.007 183.252 374.885 183.717C373.762 184.182 372.527 184.304 371.336 184.067C370.144 183.83 369.05 183.245 368.191 182.386C367.332 181.527 366.747 180.432 366.51 179.241C366.273 178.05 366.395 176.815 366.86 175.692C367.324 174.57 368.112 173.611 369.122 172.936C370.132 172.261 371.319 171.901 372.534 171.901C374.163 171.901 375.725 172.548 376.877 173.7C378.029 174.852 378.676 176.414 378.676 178.043Z" fill="#A2FFFF"/>
<path d="M464.31 245.51L463.784 249.011L467.06 249.366L468.316 246.97L464.31 245.51Z" fill="#D4E4FF"/>
<path d="M471.919 260.524V255.269C471.919 255.269 468.739 255.856 463.784 253.808V249.031C465.09 248.77 466.282 248.109 467.196 247.141L463.784 245.885L464.412 243.367L461.682 241.784L466.063 234.311L466.439 229.909L469.169 231.799L470.431 239.846L471.898 236.699C471.898 236.699 474.499 235.28 475.461 237.832C475.68 238.381 475.753 238.977 475.672 239.562C475.591 240.148 475.36 240.702 475.001 241.171C474.642 241.64 474.167 242.008 473.624 242.239C473.08 242.469 472.485 242.555 471.898 242.487L473.448 251.672H485.773V260.544L471.919 260.524Z" fill="#FFCDA9"/>
<path d="M471.919 236.679L470.458 240.678L469.189 231.806C469.189 231.806 460.638 231.171 460.638 224.258L463.593 224.408C463.593 224.408 460.911 218.505 465.64 214.39L468.527 217.454C468.527 217.454 468.527 211.612 475.085 211.046L476.395 215.264C476.395 215.264 487.444 214.977 492.242 224.279L493.552 222.825L492.972 225.152L495.299 225.876L492.822 226.899C492.822 226.899 498.5 241.852 485.772 251.679V253.651L483.083 251.679H473.447L471.898 242.493C471.898 242.493 475.147 242.493 475.604 239.313C476.027 236.426 473.167 235.983 471.919 236.679Z" fill="#131637"/>
<path d="M488.352 260.524C488.352 260.524 481.234 256.306 469.551 260.524L466.821 265.717L489.164 264.564L488.352 260.524Z" fill="#14AFFF"/>
<path style="mix-blend-mode:multiply" opacity="0.4" d="M467.435 264.557C473.977 261.151 481.554 260.304 488.687 262.182L489.171 264.564L475.092 265.294L467.449 264.557H467.435Z" fill="url(#paint2_linear_27_1751)"/>
<path d="M466.05 234.29L464.412 243.347L461.668 241.763L466.05 234.29Z" fill="#FF7588"/>
<path d="M498.166 269.293C498.166 269.293 509.256 291.657 514.374 317.747C514.374 317.747 510.443 336.542 503.871 345.045C496.569 321.159 491.696 296.018 491.696 296.018L498.166 269.293Z" fill="#14AFFF"/>
<path d="M498.166 269.293C498.166 269.293 485.793 256.381 460.181 266.789L455.943 346.478H503.912C503.912 346.478 506.219 300.884 498.166 269.293Z" fill="#0ED0E9"/>
<path d="M420.497 301.648L412.928 294.421L412.778 298.113L404.739 291.234C405.019 294.595 406.234 297.811 408.247 300.517C410.26 303.224 412.99 305.313 416.129 306.548L420.497 301.648Z" fill="#FFCDA9"/>
<path d="M418.585 299.84L414.49 295.178L410.396 290.51C409.991 290.874 409.728 291.369 409.656 291.908C409.583 292.447 409.705 292.995 410 293.452L412.73 298.113L418.585 299.84Z" fill="#FFCDA9"/>
<path d="M460.181 266.761C460.181 266.761 453.82 299.417 440.39 303.75C430.282 307.012 424.693 303.184 424.693 303.184L418.476 310.288C422.014 313.155 426.153 315.188 430.585 316.235C435.017 317.281 439.628 317.316 444.075 316.335C463.866 312.097 470.049 291.207 470.049 291.207C470.049 291.207 473.045 269.989 460.181 266.761Z" fill="#14AFFF"/>
<path d="M424.74 303.197L420.753 299.712L414.542 306.819L418.53 310.304L424.74 303.197Z" fill="#0ED0E9"/>
<path d="M470.465 487.691V489.609C470.465 489.985 470.316 490.346 470.05 490.612C469.783 490.879 469.422 491.028 469.046 491.028H440.342C440.342 491.028 444.341 483.658 458.243 483.187C462.542 483.986 466.675 485.509 470.465 487.691Z" fill="#000F1F"/>
<path d="M513.466 484.9V487.745C513.466 488.207 513.283 488.65 512.956 488.976C512.63 489.302 512.187 489.486 511.726 489.486H507.85C507.234 489.487 506.624 489.376 506.048 489.158L490.215 483.187C490.215 483.187 494.46 478.266 503.864 481.399L513.466 484.9Z" fill="#000F1F"/>
<path d="M503.912 346.478L506.219 422.442C507.635 426.276 508.847 430.183 509.849 434.146C514.374 451.316 513.644 485.48 513.644 485.48C513.644 485.48 509.385 489.486 503.871 484.934L489.171 418.736L479.903 374.145L473.761 417.187C473.761 417.187 477.535 427.123 475.863 444.205C474.826 454.858 470.404 487.691 470.404 487.691C470.404 487.691 462.317 487.111 458.891 483.33L455.881 404.364V346.478H503.912Z" fill="#002A88"/>
<path d="M479.903 374.152L483.677 367.279L498.289 359.226L489.512 368.344L491.375 428.679L479.903 374.152Z" fill="#001F5F"/>
<path d="M455.943 346.478L504.083 351.952L503.912 346.478H455.943Z" fill="#001F5F"/>
<path d="M47.7906 348.915C47.6882 350.529 48.0659 352.137 48.8762 353.537C49.6864 354.936 50.893 356.065 52.3437 356.779C53.7944 357.494 55.4243 357.764 57.0279 357.553C58.6314 357.343 60.1368 356.663 61.3543 355.598C62.5717 354.534 63.4468 353.133 63.869 351.572C64.2912 350.01 64.2417 348.359 63.7267 346.826C63.2118 345.293 62.2544 343.947 60.9754 342.957C59.6964 341.967 58.1529 341.378 56.5396 341.264C55.462 341.188 54.3801 341.326 53.356 341.67C52.332 342.014 51.3861 342.558 50.5729 343.269C49.7596 343.98 49.0952 344.845 48.6177 345.814C48.1402 346.783 47.8591 347.837 47.7906 348.915Z" fill="#131637"/>
<path d="M50.8684 342.117C50.7953 343.223 51.0516 344.325 51.605 345.285C52.1583 346.245 52.9838 347.019 53.9771 347.51C54.9705 348.001 56.087 348.186 57.1857 348.043C58.2843 347.899 59.3156 347.433 60.1493 346.703C60.9831 345.973 61.5817 345.013 61.8696 343.943C62.1575 342.873 62.1217 341.742 61.7667 340.692C61.4118 339.643 60.7536 338.722 59.8755 338.046C58.9973 337.371 57.9385 336.971 56.833 336.897C56.0985 336.848 55.3616 336.944 54.6642 337.179C53.9669 337.415 53.3228 337.786 52.7689 338.271C52.215 338.756 51.762 339.345 51.4359 340.005C51.1098 340.665 50.917 341.383 50.8684 342.117Z" fill="#131637"/>
<path d="M60.0541 340.63C60.0943 341.033 60.0137 341.44 59.8226 341.798C59.6315 342.155 59.3384 342.448 58.9805 342.639C58.6227 342.83 58.2162 342.91 57.8127 342.87C57.4091 342.829 57.0266 342.67 56.7138 342.412C56.401 342.154 56.1718 341.809 56.0555 341.42C55.9392 341.031 55.9409 340.617 56.0604 340.23C56.1799 339.842 56.4118 339.499 56.7267 339.243C57.0417 338.987 57.4254 338.831 57.8293 338.794C58.3673 338.745 58.9031 338.91 59.3199 339.254C59.7366 339.597 60.0005 340.092 60.0541 340.63Z" fill="#131637"/>
<path d="M60.2997 343.155C60.3399 343.558 60.2593 343.965 60.0682 344.322C59.8771 344.68 59.584 344.973 59.2261 345.164C58.8683 345.355 58.4618 345.435 58.0583 345.395C57.6547 345.354 57.2722 345.195 56.9594 344.937C56.6466 344.679 56.4174 344.333 56.3011 343.945C56.1848 343.556 56.1865 343.142 56.306 342.754C56.4255 342.367 56.6574 342.023 56.9724 341.768C57.2873 341.512 57.671 341.356 58.0749 341.319C58.613 341.269 59.1487 341.435 59.5655 341.779C59.9822 342.122 60.2462 342.617 60.2997 343.155Z" fill="#131637"/>
<path d="M57.8292 338.794C57.8292 338.794 55.9865 329.99 44.1256 332.072C44.1256 332.072 34.1481 331.048 29.5689 341.845C31.2755 345.157 32.1138 348.848 32.0053 352.573C31.3228 369.293 28.8182 387.282 19.4004 401.552C19.2435 401.784 19.0728 401.996 18.9159 402.235C18.1242 404.418 17.2712 406.582 16.3635 408.697C19.1547 411.154 23.5565 412.99 30.5721 412.198C38.161 395.048 41.8667 376.54 41.8667 376.54L48.9164 363.894L56.8806 356.79C56.8806 356.79 64.0258 340.077 57.8292 338.794Z" fill="#131637"/>
<path d="M60.566 344.656C60.566 344.82 64.0669 352.914 64.101 359.158L58.2524 358.892L60.566 344.656Z" fill="#FF907D"/>
<path d="M57.2015 339.865C57.2015 339.865 68.496 348.908 58.5664 370.657L50.0016 368.965L49.3192 379.202L38.1611 378.458L38.9528 366.583C40.4819 365.554 41.7599 364.194 42.692 362.604C43.6241 361.014 44.1864 359.234 44.3373 357.397C44.3373 357.397 38.6184 356.667 39.4714 351.494C40.0174 348.198 44.7399 347.884 45.941 351.303L45.7159 354.654C45.7159 354.654 48.2477 353.603 48.8073 348.997C48.8073 348.997 54.8266 345.693 52.4107 339.572L57.2015 339.865Z" fill="#FFCDA9"/>
<path d="M56.4578 359.943L61.8286 361.035C61.4528 362.755 60.9719 364.451 60.3887 366.112C55.3181 364.809 56.4578 359.943 56.4578 359.943Z" fill="#D4E4FF"/>
<path d="M58.7504 339.981C58.8123 340.624 58.6823 341.27 58.3767 341.839C58.0712 342.407 57.604 342.872 57.034 343.175C56.4641 343.478 55.8172 343.605 55.1751 343.54C54.533 343.475 53.9246 343.221 53.4269 342.81C52.9291 342.399 52.5644 341.85 52.3789 341.232C52.1934 340.614 52.1954 339.955 52.3846 339.338C52.5739 338.721 52.9419 338.174 53.4421 337.766C53.9424 337.358 54.5523 337.108 55.1948 337.047C56.0553 336.965 56.9131 337.228 57.5798 337.778C58.2464 338.329 58.6674 339.121 58.7504 339.981Z" fill="#131637"/>
<path d="M55.0039 344.424C55.0993 345.411 54.9 346.403 54.4312 347.276C53.9623 348.15 53.2449 348.864 52.3699 349.329C51.4948 349.795 50.5014 349.99 49.5153 349.891C48.5292 349.791 47.5947 349.401 46.8302 348.771C46.0657 348.14 45.5055 347.297 45.2204 346.347C44.9354 345.398 44.9383 344.386 45.2289 343.438C45.5195 342.491 46.0846 341.65 46.8528 341.024C47.6209 340.398 48.5576 340.014 49.5443 339.92C50.8653 339.794 52.1821 340.198 53.2057 341.043C54.2293 341.887 54.876 343.103 55.0039 344.424Z" fill="#131637"/>
<path d="M40.9862 374.131C35.2468 373.749 29.6848 378.158 30.067 383.904C32.5238 418.948 20.0828 449.119 20.0828 449.119H58.9824C58.9824 449.119 55.5701 417.794 56.4573 415.488C57.3445 413.181 66.2232 409.974 66.2232 401.095L50.9431 380.048C49.8648 378.349 48.4015 376.928 46.6716 375.9C44.9417 374.872 42.994 374.266 40.9862 374.131Z" fill="#0ED0E9"/>
<path d="M56.4575 415.487C56.71 414.805 57.6654 414.047 58.8802 413.092C57.4366 408.837 56.3657 404.464 55.6795 400.023C53.0316 383.931 42.2694 384.941 38.4204 387.964C32.0668 392.953 31.705 402.07 37.6355 414.136C43.7776 426.659 51.032 435.183 58.109 441.004C57.2014 431.552 55.8774 417.03 56.4575 415.487Z" fill="#24E9FF"/>
<path d="M51.5508 381.01L51.9057 381.235L54.8061 382.088C55.4156 382.265 55.9427 382.652 56.2938 383.18C56.6449 383.709 56.7973 384.345 56.7238 384.975L56.4235 387.596C58.8483 388.552 60.9496 390.18 62.4801 392.29C64.0107 394.4 64.9069 396.903 65.0633 399.505" fill="#003C9A"/>
<path d="M37.1375 374.766L37.3558 373.599C35.9909 374.213 44.6581 370.903 50.9707 376.854L51.5508 381.01C47.3492 377.748 42.3913 375.6 37.1375 374.766Z" fill="#006ED4"/>
<path d="M32.7833 368.446C32.8924 369.562 33.33 370.621 34.0407 371.489C34.7514 372.356 35.7033 372.993 36.7761 373.32C37.8489 373.646 38.9944 373.648 40.0679 373.323C41.1414 372.999 42.0946 372.363 42.807 371.497C43.5195 370.631 43.9592 369.574 44.0706 368.458C44.182 367.342 43.9601 366.218 43.4329 365.228C42.9057 364.239 42.0969 363.427 41.1087 362.897C40.1205 362.367 38.9973 362.142 37.8811 362.25C37.1394 362.321 36.4191 362.539 35.7614 362.889C35.1036 363.239 34.5214 363.716 34.0479 364.291C33.5745 364.867 33.2191 365.53 33.0021 366.243C32.7851 366.956 32.7107 367.705 32.7833 368.446Z" fill="#131637"/>
<path d="M29.7259 373.551C29.8065 374.373 30.1288 375.152 30.6521 375.79C31.1753 376.429 31.8761 376.898 32.6659 377.139C33.4556 377.379 34.2989 377.38 35.0893 377.142C35.8796 376.903 36.5816 376.436 37.1064 375.798C37.6313 375.161 37.9555 374.383 38.0381 373.561C38.1208 372.74 37.9581 371.912 37.5707 371.183C37.1833 370.454 36.5886 369.856 35.8616 369.465C35.1346 369.074 34.308 368.907 33.4861 368.985C32.3822 369.092 31.3659 369.634 30.6608 370.49C29.9557 371.346 29.6194 372.447 29.7259 373.551Z" fill="#131637"/>
<path d="M44.1256 332.072C44.1256 332.072 31.6845 330.024 26.7368 348.096C26.7368 348.096 24.9829 379.27 10.201 392.694C-4.58087 406.118 3.04895 425.861 26.7368 427.69C29.8675 421.451 30.7981 414.337 29.3779 407.503C29.3779 407.503 36.1136 392.892 32.9198 383.221C32.9198 383.221 44.1324 380.533 38.9526 366.556C33.377 356.169 41.3685 343.353 41.3685 343.353L50.0151 337.566L44.1256 332.072Z" fill="#131637"/>
<path d="M72.6589 577.638C72.6589 585.015 57.3379 591 38.4273 591C19.5166 591 4.20239 585.015 4.20239 577.638C4.20239 570.26 19.5234 564.309 38.4273 564.309C57.3311 564.309 72.6589 570.253 72.6589 577.638Z" fill="#D2EAFF"/>
<path d="M51.6119 449.119H58.9824L54.84 576.983H49.3326C49.3326 576.983 39.4098 537.148 42.0713 510.874C44.3439 480.621 39.4644 467.504 39.4644 467.504" fill="#00216C"/>
<path d="M54.9695 449.119L44.3437 509.29L7.2253 566.309L1.53369 563.934C1.53369 563.934 15.285 522.987 29.9372 503.326L22.519 473.543C20.1111 465.631 19.2901 457.322 20.1031 449.091L54.9695 449.119Z" fill="#002A88"/>
<path d="M1.53412 563.934L0.708345 565.094C0.547212 565.325 0.479442 565.608 0.518697 565.887C0.557952 566.165 0.701316 566.418 0.919903 566.596L17.4966 579.508C17.4966 579.508 18.3497 573.243 10.522 566.705C7.71359 565.257 4.67044 564.319 1.53412 563.934Z" fill="#000F1F"/>
<path d="M48.4865 575.113V576.593C48.481 576.871 48.5856 577.14 48.7774 577.34C48.9692 577.541 49.2327 577.658 49.5102 577.665H70.1543C70.1543 577.665 67.2812 572.103 57.2765 571.748C54.1725 572.348 51.1976 573.486 48.4865 575.113Z" fill="#000F1F"/>
<path d="M38.4204 387.964C41.6757 384.307 52.0694 381.413 57.529 396.782C64.0464 415.208 73.6279 428.058 100.878 433.968V443.263C100.878 443.263 69.5742 450.955 42.2762 413.863C34.2984 403.04 33.0495 393.997 38.4204 387.964Z" fill="#14AFFF"/>
<path d="M99.8135 436.152C99.8135 436.152 103.287 433.272 104.789 432.74C104.789 432.74 111.988 429.027 113.142 428.522C113.142 428.522 114.65 429.717 112.944 431.334C111.623 432.499 110.182 433.519 108.644 434.378C108.644 434.378 112.159 434.596 114.302 433.9C116.445 433.204 120.724 431.948 121.986 432.583C123.249 433.218 122.198 434.248 122.198 434.248C122.198 434.248 115.633 436.166 114.227 436.596C112.992 436.964 113.469 437.387 113.469 437.387L122.86 436.835C124.286 436.753 124.866 437.517 124.511 438.766C124.511 438.766 120.26 439.046 117.687 439.448C116.786 439.592 113.64 439.503 113.852 440.513C113.852 440.513 120.717 440.82 121.884 440.731C123.051 440.643 123.658 441.591 122.962 442.622L113.62 442.922C113.62 442.922 112.971 443.065 113.21 443.461C113.449 443.857 117.605 445.072 118.09 445.085C118.574 445.099 120.076 445.283 119.748 446.45C119.748 446.45 119.584 446.839 118.171 446.689C116.759 446.539 110.05 446.055 110.05 446.055C106.959 446.024 103.913 445.301 101.137 443.939C96.6538 441.68 96.6538 439.667 97.7867 442.308L98.6943 439.721L99.8135 436.152Z" fill="#FFCDA9"/>
<path d="M102.141 444.649L102.769 433.552L95.7736 432.781L94.8318 443.925L102.141 444.649Z" fill="#0ED0E9"/>
<path d="M115.715 285.624H81.8924C78.3503 285.624 74.9532 287.031 72.4486 289.536C69.9439 292.041 68.5369 295.438 68.5369 298.98V332.802C68.5365 335.799 69.5466 338.71 71.404 341.062C73.2614 343.415 75.8578 345.073 78.7736 345.768V357.834L90.4298 346.178H115.68C117.441 346.185 119.185 345.844 120.813 345.175C122.441 344.506 123.921 343.521 125.167 342.278C126.413 341.035 127.401 339.558 128.075 337.932C128.748 336.305 129.093 334.562 129.091 332.802V298.98C129.091 297.224 128.744 295.486 128.072 293.864C127.4 292.242 126.414 290.769 125.172 289.529C123.929 288.288 122.455 287.305 120.832 286.635C119.209 285.965 117.47 285.621 115.715 285.624Z" fill="#0ED0E9"/>
<path d="M117.4 312.881C117.405 310.697 116.701 308.57 115.394 306.819C114.086 305.069 112.246 303.79 110.15 303.175C108.054 302.56 105.815 302.641 103.769 303.407C101.723 304.172 99.9806 305.581 98.8036 307.422C97.9747 306.117 96.8573 305.021 95.5376 304.216C94.2179 303.412 92.7311 302.922 91.1918 302.783C89.6526 302.644 88.102 302.86 86.6596 303.415C85.2172 303.97 83.9216 304.849 82.8726 305.984C81.8236 307.119 81.0492 308.48 80.6092 309.962C80.1691 311.443 80.0752 313.006 80.3346 314.529C80.594 316.053 81.1998 317.497 82.1053 318.749C83.0108 320.002 84.1918 321.029 85.5573 321.753L98.8036 329.547L112.043 321.794C113.661 320.935 115.014 319.651 115.958 318.081C116.902 316.511 117.4 314.713 117.4 312.881Z" fill="#E9280E"/>
<path d="M166.939 249.823H140.692C137.944 249.823 135.308 250.914 133.365 252.857C131.421 254.799 130.328 257.434 130.326 260.182V286.436C130.329 288.76 131.114 291.015 132.555 292.837C133.996 294.66 136.009 295.944 138.27 296.482V305.845L147.319 296.789H166.939C169.687 296.789 172.322 295.698 174.265 293.755C176.207 291.812 177.299 289.177 177.299 286.429V260.182C177.299 257.435 176.207 254.8 174.265 252.857C172.322 250.914 169.687 249.823 166.939 249.823Z" fill="#0ED0E9"/>
<path d="M141.129 272.944C141.129 275.453 141.873 277.906 143.267 279.993C144.661 282.079 146.642 283.705 148.961 284.665C151.279 285.625 153.83 285.877 156.291 285.387C158.752 284.898 161.012 283.689 162.787 281.915C164.561 280.141 165.769 277.88 166.259 275.419C166.748 272.958 166.497 270.407 165.537 268.089C164.576 265.771 162.95 263.79 160.864 262.396C158.778 261.002 156.325 260.257 153.816 260.257C152.149 260.257 150.499 260.584 148.96 261.221C147.42 261.859 146.021 262.793 144.843 263.971C143.664 265.15 142.73 266.548 142.093 268.088C141.456 269.628 141.128 271.278 141.129 272.944Z" fill="#001895"/>
<path d="M152.192 270.856C152.079 270.856 151.971 270.812 151.89 270.733C151.81 270.653 151.764 270.546 151.762 270.433C151.774 270.274 151.753 270.115 151.701 269.965C151.649 269.815 151.566 269.677 151.458 269.561C151.35 269.444 151.219 269.351 151.074 269.287C150.928 269.224 150.771 269.191 150.612 269.191C150.453 269.191 150.296 269.224 150.15 269.287C150.005 269.351 149.874 269.444 149.766 269.561C149.658 269.677 149.575 269.815 149.523 269.965C149.47 270.115 149.45 270.274 149.462 270.433C149.449 270.537 149.398 270.632 149.32 270.701C149.241 270.771 149.14 270.809 149.035 270.809C148.931 270.809 148.83 270.771 148.751 270.701C148.673 270.632 148.622 270.537 148.609 270.433C148.593 270.16 148.633 269.887 148.726 269.63C148.82 269.373 148.965 269.138 149.152 268.939C149.34 268.74 149.566 268.582 149.817 268.474C150.068 268.365 150.339 268.31 150.612 268.31C150.885 268.31 151.156 268.365 151.407 268.474C151.658 268.582 151.884 268.74 152.071 268.939C152.259 269.138 152.404 269.373 152.497 269.63C152.591 269.887 152.631 270.16 152.615 270.433C152.615 270.545 152.57 270.653 152.491 270.732C152.412 270.811 152.304 270.856 152.192 270.856Z" fill="#0ED0E9"/>
<path d="M158.436 270.856C158.324 270.856 158.216 270.811 158.137 270.732C158.057 270.653 158.013 270.545 158.013 270.433C158.013 270.127 157.891 269.834 157.675 269.617C157.459 269.401 157.165 269.28 156.859 269.28C156.553 269.28 156.26 269.401 156.044 269.617C155.828 269.834 155.706 270.127 155.706 270.433C155.693 270.537 155.642 270.632 155.564 270.701C155.485 270.771 155.384 270.809 155.28 270.809C155.175 270.809 155.074 270.771 154.995 270.701C154.917 270.632 154.866 270.537 154.853 270.433C154.837 270.16 154.877 269.887 154.971 269.63C155.064 269.373 155.209 269.138 155.397 268.939C155.584 268.74 155.81 268.582 156.061 268.474C156.312 268.365 156.583 268.31 156.856 268.31C157.129 268.31 157.4 268.365 157.651 268.474C157.902 268.582 158.128 268.74 158.316 268.939C158.503 269.138 158.648 269.373 158.741 269.63C158.835 269.887 158.875 270.16 158.859 270.433C158.859 270.545 158.814 270.653 158.735 270.732C158.656 270.811 158.548 270.856 158.436 270.856Z" fill="#0ED0E9"/>
<path d="M153.816 280.67C155.603 280.67 157.317 279.96 158.581 278.697C159.845 277.434 160.557 275.721 160.558 273.934H147.073C147.073 274.819 147.248 275.695 147.587 276.513C147.926 277.331 148.422 278.074 149.049 278.699C149.675 279.325 150.418 279.821 151.236 280.159C152.054 280.497 152.931 280.671 153.816 280.67Z" fill="#D4E4FF"/>
<path d="M488.741 198.564L485.779 209.313L497.381 206.672C503.634 210.526 511.095 211.921 518.318 210.587C525.541 209.252 532.011 205.283 536.474 199.449C540.937 193.615 543.075 186.332 542.472 179.011C541.87 171.691 538.571 164.854 533.215 159.828C527.858 154.802 520.827 151.944 513.483 151.807C506.139 151.671 499.006 154.267 493.467 159.091C487.928 163.916 484.378 170.625 483.505 177.918C482.632 185.211 484.498 192.569 488.741 198.564Z" fill="#003591"/>
<path d="M532.384 174.139H494.985C494.435 174.139 493.989 174.585 493.989 175.136V195.8C493.989 196.351 494.435 196.797 494.985 196.797H532.384C532.934 196.797 533.38 196.351 533.38 195.8V175.136C533.38 174.585 532.934 174.139 532.384 174.139Z" fill="#FFC01C"/>
<path d="M532.343 174.139H495.026C494.453 174.139 493.989 174.604 493.989 175.177V195.759C493.989 196.332 494.453 196.797 495.026 196.797H532.343C532.916 196.797 533.38 196.332 533.38 195.759V175.177C533.38 174.604 532.916 174.139 532.343 174.139Z" fill="#FFC01C"/>
<path d="M494.992 196.025C495.512 196.505 496.19 196.777 496.896 196.79H530.432C531.177 196.786 531.892 196.498 532.432 195.984C532.808 195.548 533.085 195.036 533.244 194.483L515.643 180.199C515.377 179.966 515.066 179.788 514.73 179.675C514.394 179.563 514.039 179.518 513.686 179.543C513.332 179.569 512.987 179.664 512.671 179.823C512.355 179.983 512.073 180.203 511.842 180.472L494.685 195.664C494.778 195.792 494.881 195.913 494.992 196.025Z" fill="#FFB01C"/>
<path opacity="0.35" d="M417.836 236.597C424.779 200.541 401.178 165.683 365.123 158.74C329.067 151.797 294.209 175.397 287.266 211.453C280.323 247.509 303.923 282.366 339.979 289.309C376.035 296.253 410.892 272.652 417.836 236.597Z" fill="#A2FFFF"/>
<path d="M497.893 164.175H529.476C529.838 164.175 530.186 164.319 530.442 164.575C530.698 164.831 530.841 165.178 530.841 165.54V186.901H496.542V165.54C496.541 165.181 496.683 164.836 496.936 164.58C497.189 164.324 497.533 164.179 497.893 164.175Z" fill="#D4E4FF"/>
<path d="M510.723 167.007H499.223C499.16 167.007 499.099 166.982 499.055 166.938C499.01 166.893 498.985 166.832 498.985 166.769C498.986 166.706 499.012 166.647 499.057 166.604C499.102 166.561 499.161 166.537 499.223 166.537H510.723C510.754 166.536 510.785 166.541 510.814 166.552C510.843 166.564 510.869 166.58 510.891 166.602C510.914 166.624 510.931 166.65 510.943 166.678C510.955 166.707 510.962 166.738 510.962 166.769C510.963 166.8 510.957 166.832 510.945 166.861C510.934 166.891 510.916 166.917 510.894 166.94C510.871 166.962 510.845 166.98 510.815 166.991C510.786 167.003 510.754 167.008 510.723 167.007Z" fill="#0ED0E9"/>
<path d="M510.723 169.11H499.223C499.161 169.11 499.102 169.085 499.057 169.042C499.012 168.999 498.986 168.94 498.985 168.878C498.985 168.814 499.01 168.753 499.055 168.709C499.099 168.664 499.16 168.639 499.223 168.639H510.723C510.754 168.638 510.786 168.643 510.815 168.655C510.845 168.667 510.871 168.684 510.894 168.707C510.916 168.729 510.934 168.756 510.945 168.785C510.957 168.814 510.963 168.846 510.962 168.878C510.962 168.909 510.955 168.939 510.943 168.968C510.931 168.997 510.914 169.022 510.891 169.044C510.869 169.066 510.843 169.083 510.814 169.094C510.785 169.105 510.754 169.11 510.723 169.11Z" fill="#0ED0E9"/>
<path d="M527.934 172.133H499.223C499.16 172.133 499.099 172.108 499.055 172.063C499.01 172.018 498.985 171.957 498.985 171.894C498.985 171.831 499.01 171.77 499.055 171.725C499.099 171.68 499.16 171.655 499.223 171.655H527.934C527.998 171.655 528.058 171.68 528.103 171.725C528.148 171.77 528.173 171.831 528.173 171.894C528.173 171.957 528.148 172.018 528.103 172.063C528.058 172.108 527.998 172.133 527.934 172.133Z" fill="#14AFFF"/>
<path d="M527.934 174.139H499.223C499.161 174.139 499.102 174.115 499.057 174.072C499.012 174.028 498.986 173.969 498.985 173.907C498.985 173.844 499.01 173.783 499.055 173.738C499.099 173.693 499.16 173.668 499.223 173.668H527.934C527.998 173.668 528.058 173.693 528.103 173.738C528.148 173.783 528.173 173.844 528.173 173.907C528.171 173.969 528.145 174.028 528.101 174.072C528.056 174.115 527.996 174.139 527.934 174.139Z" fill="#14AFFF"/>
<path d="M527.934 176.152H499.223C499.16 176.152 499.099 176.127 499.055 176.082C499.01 176.038 498.985 175.977 498.985 175.914C498.985 175.85 499.01 175.789 499.055 175.745C499.099 175.7 499.16 175.675 499.223 175.675H527.934C527.998 175.675 528.058 175.7 528.103 175.745C528.148 175.789 528.173 175.85 528.173 175.914C528.173 175.977 528.148 176.038 528.103 176.082C528.058 176.127 527.998 176.152 527.934 176.152Z" fill="#14AFFF"/>
<path d="M527.934 178.159H499.223C499.16 178.159 499.099 178.134 499.055 178.089C499.01 178.044 498.985 177.983 498.985 177.92C498.985 177.889 498.991 177.858 499.003 177.829C499.015 177.8 499.032 177.773 499.055 177.751C499.077 177.729 499.103 177.711 499.132 177.699C499.161 177.687 499.192 177.681 499.223 177.681H527.934C527.966 177.681 527.997 177.687 528.026 177.699C528.055 177.711 528.081 177.729 528.103 177.751C528.125 177.773 528.143 177.8 528.155 177.829C528.167 177.858 528.173 177.889 528.173 177.92C528.173 177.983 528.148 178.044 528.103 178.089C528.058 178.134 527.998 178.159 527.934 178.159Z" fill="#14AFFF"/>
<path d="M527.934 180.165H499.223C499.16 180.165 499.099 180.14 499.055 180.095C499.01 180.05 498.985 179.99 498.985 179.926C498.986 179.864 499.012 179.805 499.057 179.762C499.102 179.719 499.161 179.694 499.223 179.694H527.934C527.996 179.694 528.056 179.719 528.101 179.762C528.145 179.805 528.171 179.864 528.173 179.926C528.173 179.99 528.148 180.05 528.103 180.095C528.058 180.14 527.998 180.165 527.934 180.165Z" fill="#14AFFF"/>
<path d="M527.934 182.179H499.223C499.16 182.179 499.099 182.153 499.055 182.109C499.01 182.064 498.985 182.003 498.985 181.94C498.985 181.876 499.01 181.816 499.055 181.771C499.099 181.726 499.16 181.701 499.223 181.701H527.934C527.998 181.701 528.058 181.726 528.103 181.771C528.148 181.816 528.173 181.876 528.173 181.94C528.173 182.003 528.148 182.064 528.103 182.109C528.058 182.153 527.998 182.179 527.934 182.179Z" fill="#14AFFF"/>
<g style="mix-blend-mode:multiply">
<path d="M530.828 176.453L516.005 182.834L511.883 182.84L496.814 174.139L512.327 187.502L525.041 184.192" fill="#D5F5FF"/>
</g>
<path d="M515.684 182.609C515.122 182.202 514.435 182.003 513.742 182.045C513.049 182.087 512.392 182.368 511.883 182.841L494.685 195.807C494.957 196.146 495.309 196.411 495.71 196.579C496.11 196.747 496.546 196.813 496.978 196.769H530.807C531.371 196.741 531.911 196.535 532.35 196.181C532.789 195.826 533.104 195.342 533.251 194.797L515.684 182.609Z" fill="#FFBC3A"/>
<path d="M401.122 92.3817L404.534 101.506L395.253 97.8754C391.009 100.474 385.951 101.405 381.06 100.487C376.168 99.5695 371.792 96.8685 368.779 92.9077C365.766 88.947 364.33 84.0087 364.751 79.0499C365.172 74.0911 367.418 69.4651 371.056 66.0684C374.693 62.6718 379.461 60.7464 384.437 60.6655C389.413 60.5846 394.242 62.3539 397.988 65.6306C401.733 68.9072 404.129 73.4578 404.711 78.4002C405.292 83.3427 404.018 88.3251 401.135 92.3817H401.122Z" fill="#33497F"/>
<path d="M382.566 91.4331C382.094 91.4345 381.625 91.3423 381.188 91.162C380.752 90.9816 380.355 90.7166 380.021 90.3821L374.336 84.6905C373.692 84.0101 373.34 83.1056 373.353 82.1692C373.366 81.2328 373.744 80.3385 374.406 79.6763C375.068 79.0141 375.962 78.6363 376.899 78.6232C377.835 78.6101 378.74 78.9628 379.42 79.6063L382.566 82.7523L392.312 73.0001C392.642 72.6508 393.039 72.3713 393.479 72.1781C393.919 71.9848 394.394 71.8818 394.875 71.8751C395.355 71.8684 395.832 71.9581 396.278 72.139C396.723 72.3199 397.128 72.5882 397.468 72.9281C397.808 73.2681 398.076 73.6727 398.257 74.1182C398.438 74.5636 398.528 75.0408 398.521 75.5215C398.514 76.0022 398.411 76.4767 398.218 76.9169C398.025 77.3571 397.745 77.7541 397.396 78.0844L385.112 90.3685C384.779 90.7054 384.383 90.9729 383.946 91.1557C383.509 91.3384 383.04 91.4327 382.566 91.4331Z" fill="#D4E4FF"/>
<defs>
<linearGradient id="paint0_linear_27_1751" x1="66.9536" y1="166.66" x2="93.0504" y2="192.757" gradientUnits="userSpaceOnUse">
<stop stop-color="#E2F3F8"/>
<stop offset="1" stop-color="#D7E4FF"/>
</linearGradient>
<linearGradient id="paint1_linear_27_1751" x1="49539.2" y1="5238.18" x2="49020.1" y2="6133.17" gradientUnits="userSpaceOnUse">
<stop stop-color="#E2F3F8"/>
<stop offset="1" stop-color="#D7E4FF"/>
</linearGradient>
<linearGradient id="paint2_linear_27_1751" x1="478.306" y1="265.294" x2="478.306" y2="261.213" gradientUnits="userSpaceOnUse">
<stop stop-color="#00DFFF"/>
<stop offset="0.25" stop-color="#00CCFF"/>
<stop offset="0.76" stop-color="#009CFF"/>
<stop offset="1" stop-color="#0082FF"/>
</linearGradient>
</defs>
</svg>
