<svg width="92" height="85" viewBox="0 0 92 85" fill="none" xmlns="http://www.w3.org/2000/svg">
<circle cx="42.1294" cy="42.5985" r="41.6939" fill="#9DE8E8" fill-opacity="0.5"/>
<g clip-path="url(#clip0_27_1946)">
<path d="M73.9788 13.2584C73.3133 13.2584 72.675 13.5228 72.2044 13.9934C71.7339 14.464 71.4695 15.1023 71.4695 15.7678C71.4695 23.1679 64.9878 25.8052 58.9227 25.8052H41.3572C38.6951 25.8052 36.1421 26.8627 34.2597 28.7451C32.3773 30.6275 31.3198 33.1805 31.3198 35.8426L31.3198 40.8613C31.3253 42.3637 31.6698 43.8456 32.3276 45.1964C32.9854 46.5472 33.9396 47.7321 35.119 48.6629L44.0824 68.6674C44.7199 70.1005 45.7591 71.3181 47.0742 72.1727C48.3894 73.0273 49.9241 73.4824 51.4925 73.4829C52.7404 73.4821 53.9684 73.1692 55.0645 72.5727C56.1606 71.9762 57.0902 71.115 57.7685 70.0676C58.4469 69.0201 58.8525 67.8196 58.9485 66.5754C59.0444 65.3312 58.8277 64.0827 58.318 62.9436L52.7974 50.8987H58.9227C64.9878 50.8987 71.4695 53.536 71.4695 60.9361C71.4695 61.6016 71.7339 62.2399 72.2044 62.7105C72.675 63.1811 73.3133 63.4455 73.9788 63.4455C74.6443 63.4455 75.2826 63.1811 75.7532 62.7105C76.2238 62.2399 76.4882 61.6016 76.4882 60.9361V38.352V15.7678C76.4882 15.1023 76.2238 14.464 75.7532 13.9934C75.2826 13.5228 74.6443 13.2584 73.9788 13.2584ZM53.7459 64.9988C53.9121 65.3741 53.982 65.785 53.9493 66.1943C53.9165 66.6035 53.7822 66.998 53.5584 67.3422C53.3346 67.6863 53.0285 67.9692 52.6677 68.1651C52.307 68.3611 51.903 68.4638 51.4925 68.4642C50.8938 68.4638 50.308 68.2895 49.8064 67.9625C49.3049 67.6356 48.909 67.17 48.667 66.6223L41.6207 50.8987H47.2768L53.7459 64.9988ZM71.4695 49.895C67.8843 47.1326 63.4455 45.7122 58.9227 45.88H41.3572C40.0262 45.88 38.7497 45.3513 37.8085 44.4101C36.8673 43.4689 36.3385 42.1923 36.3385 40.8613V35.8426C36.3385 34.5116 36.8673 33.235 37.8085 32.2938C38.7497 31.3526 40.0262 30.8239 41.3572 30.8239H58.9227C63.444 30.9953 67.8827 29.5793 71.4695 26.8215V49.895ZM91.2934 52.0329C91.1462 52.328 90.9423 52.5911 90.6933 52.8073C90.4444 53.0235 90.1553 53.1885 89.8426 53.2929C89.5298 53.3973 89.1996 53.439 88.8707 53.4157C88.5418 53.3925 88.2207 53.3046 87.9258 53.1571L82.9071 50.6478C82.3115 50.3503 81.8584 49.8284 81.6476 49.1968C81.4367 48.5653 81.4854 47.8759 81.7829 47.2802C82.0804 46.6846 82.6023 46.2315 83.2339 46.0207C83.8654 45.8099 84.5548 45.8586 85.1505 46.156L90.1692 48.6654C90.7618 48.9627 91.2126 49.4824 91.4232 50.111C91.6339 50.7397 91.5872 51.4261 91.2934 52.0204V52.0329ZM81.7829 29.4488C81.6355 29.1539 81.5476 28.8328 81.5243 28.5039C81.501 28.175 81.5428 27.8448 81.6472 27.532C81.7516 27.2193 81.9166 26.9302 82.1328 26.6812C82.349 26.4323 82.6121 26.2284 82.9071 26.0812L87.9258 23.5719C88.5215 23.2744 89.2109 23.2257 89.8424 23.4365C90.474 23.6473 90.9959 24.1004 91.2934 24.6961C91.5909 25.2917 91.6395 25.9811 91.4287 26.6127C91.2179 27.2442 90.7648 27.7661 90.1692 28.0636L85.1505 30.573C84.8556 30.7204 84.5345 30.8083 84.2056 30.8316C83.8767 30.8549 83.5465 30.8131 83.2337 30.7087C82.921 30.6043 82.6319 30.4393 82.3829 30.2231C82.134 30.0069 81.9301 29.7438 81.7829 29.4488ZM81.5069 38.352C81.5069 37.6864 81.7713 37.0482 82.2419 36.5776C82.7125 36.107 83.3507 35.8426 84.0162 35.8426H89.035C89.7005 35.8426 90.3387 36.107 90.8093 36.5776C91.2799 37.0482 91.5443 37.6864 91.5443 38.352C91.5443 39.0175 91.2799 39.6557 90.8093 40.1263C90.3387 40.5969 89.7005 40.8613 89.035 40.8613H84.0162C83.3507 40.8613 82.7125 40.5969 82.2419 40.1263C81.7713 39.6557 81.5069 39.0175 81.5069 38.352Z" fill="black"/>
</g>
<defs>
<clipPath id="clip0_27_1946">
<rect width="60.2245" height="60.2245" fill="white" transform="translate(31.3198 13.2584)"/>
</clipPath>
</defs>
</svg>
