<svg width="92" height="82" viewBox="0 0 92 82" fill="none" xmlns="http://www.w3.org/2000/svg">
<circle cx="40.3386" cy="41.2315" r="40.3268" fill="#64A5DE" fill-opacity="0.5"/>
<path d="M84.5863 50.6903V41.9773C84.5856 39.0509 83.9285 36.1619 82.6634 33.5231C81.3983 30.8843 79.5575 28.5628 77.2765 26.7297H83.0115C83.4942 27.5522 84.2346 28.1927 85.118 28.552C86.0015 28.9112 86.9787 28.9693 87.8984 28.7171C88.8181 28.4649 89.6291 27.9166 90.2058 27.1569C90.7824 26.3973 91.0926 25.4688 91.0883 24.5151C91.084 23.5614 90.7655 22.6357 90.182 21.8813C89.5986 21.1269 88.7827 20.5858 87.8607 20.3419C86.9387 20.098 85.9621 20.1649 85.0819 20.5321C84.2018 20.8993 83.4672 21.5464 82.9919 22.3732H73.3863C72.9109 20.5052 71.8266 18.8489 70.3048 17.6658C68.783 16.4828 66.9105 15.8406 64.983 15.8406C63.0555 15.8406 61.1829 16.4828 59.6612 17.6658C58.1394 18.8489 57.0551 20.5052 56.5797 22.3732H46.9545C46.4718 21.5507 45.7314 20.9102 44.848 20.551C43.9645 20.1917 42.9873 20.1337 42.0676 20.3858C41.1478 20.638 40.3369 21.1864 39.7602 21.946C39.1836 22.7056 38.8734 23.6341 38.8777 24.5879C38.8819 25.5416 39.2005 26.4673 39.784 27.2217C40.3674 27.9761 41.1833 28.5171 42.1053 28.761C43.0272 29.0049 44.0039 28.9381 44.884 28.5709C45.7642 28.2037 46.4988 27.5565 46.9741 26.7297H52.6895C50.4085 28.5628 48.5676 30.8843 47.3026 33.5231C46.0375 36.1619 45.3804 39.0509 45.3797 41.9773V50.6903C43.6466 50.6903 41.9846 51.3787 40.7591 52.6042C39.5337 53.8297 38.8452 55.4918 38.8452 57.225V61.5814C38.8452 63.3145 39.5337 64.9767 40.7591 66.2022C41.9846 67.4276 43.6466 68.1161 45.3797 68.1161H49.736C51.469 68.1161 53.1311 67.4276 54.3565 66.2022C55.5819 64.9767 56.2704 63.3145 56.2704 61.5814V57.225C56.2704 55.4918 55.5819 53.8297 54.3565 52.6042C53.1311 51.3787 51.469 50.6903 49.736 50.6903V41.9773C49.7395 39.2953 50.4504 36.6616 51.7969 34.3421C53.1435 32.0226 55.078 30.0993 57.4052 28.7663C58.1478 30.1277 59.2434 31.2638 60.5769 32.0554C61.9103 32.8469 63.4323 33.2647 64.983 33.2647C66.5337 33.2647 68.0557 32.8469 69.3891 32.0554C70.7226 31.2638 71.8182 30.1277 72.5608 28.7663C74.888 30.0993 76.8225 32.0226 78.169 34.3421C79.5156 36.6616 80.2265 39.2953 80.23 41.9773V50.6903C78.497 50.6903 76.8349 51.3787 75.6095 52.6042C74.384 53.8297 73.6956 55.4918 73.6956 57.225V61.5814C73.6956 63.3145 74.384 64.9767 75.6095 66.2022C76.8349 67.4276 78.497 68.1161 80.23 68.1161H84.5863C86.3194 68.1161 87.9814 67.4276 89.2069 66.2022C90.4323 64.9767 91.1208 63.3145 91.1208 61.5814V57.225C91.1208 55.4918 90.4323 53.8297 89.2069 52.6042C87.9814 51.3787 86.3194 50.6903 84.5863 50.6903ZM51.9141 57.225V61.5814C51.9141 62.1591 51.6846 62.7132 51.2761 63.1217C50.8677 63.5302 50.3136 63.7597 49.736 63.7597H45.3797C44.802 63.7597 44.248 63.5302 43.8395 63.1217C43.431 62.7132 43.2015 62.1591 43.2015 61.5814V57.225C43.2015 56.6473 43.431 56.0932 43.8395 55.6847C44.248 55.2762 44.802 55.0467 45.3797 55.0467H49.736C50.3136 55.0467 50.8677 55.2762 51.2761 55.6847C51.6846 56.0932 51.9141 56.6473 51.9141 57.225ZM64.983 28.9079C64.1214 28.9079 63.2792 28.6524 62.5628 28.1737C61.8464 27.695 61.288 27.0147 60.9583 26.2186C60.6286 25.4226 60.5423 24.5466 60.7104 23.7016C60.8785 22.8565 61.2934 22.0802 61.9026 21.471C62.5119 20.8617 63.2881 20.4468 64.1331 20.2787C64.9782 20.1106 65.8541 20.1969 66.6501 20.5266C67.4461 20.8564 68.1264 21.4147 68.6051 22.1311C69.0838 22.8476 69.3393 23.6898 69.3393 24.5515C69.3393 25.7069 68.8803 26.815 68.0634 27.632C67.2464 28.4489 66.1383 28.9079 64.983 28.9079ZM86.7645 61.5814C86.7645 62.1591 86.535 62.7132 86.1265 63.1217C85.718 63.5302 85.164 63.7597 84.5863 63.7597H80.23C79.6523 63.7597 79.0983 63.5302 78.6898 63.1217C78.2814 62.7132 78.0519 62.1591 78.0519 61.5814V57.225C78.0519 56.6473 78.2814 56.0932 78.6898 55.6847C79.0983 55.2762 79.6523 55.0467 80.23 55.0467H84.5863C85.164 55.0467 85.718 55.2762 86.1265 55.6847C86.535 56.0932 86.7645 56.6473 86.7645 57.225V61.5814Z" fill="black"/>
</svg>
