<svg width="92" height="78" viewBox="0 0 92 78" fill="none" xmlns="http://www.w3.org/2000/svg">
<circle cx="39.0242" cy="39.3412" r="38.4365" fill="#D07362" fill-opacity="0.5"/>
<path d="M79.2401 16.564H44.3625C41.0601 16.568 37.8941 17.8717 35.559 20.1893C33.2238 22.5069 31.9102 25.6491 31.9063 28.9267L31.9062 43.7618C31.9102 47.0394 33.2238 50.1816 35.559 52.4992C37.8941 54.8168 41.0601 56.1205 44.3625 56.1244H59.3101V58.597H51.8363C51.1756 58.597 50.5419 58.8575 50.0747 59.3211C49.6075 59.7848 49.345 60.4137 49.345 61.0695C49.345 61.7252 49.6075 62.3541 50.0747 62.8178C50.5419 63.2815 51.1756 63.542 51.8363 63.542H71.7664C72.4271 63.542 73.0607 63.2815 73.5279 62.8178C73.9951 62.3541 74.2576 61.7252 74.2576 61.0695C74.2576 60.4137 73.9951 59.7848 73.5279 59.3211C73.0607 58.8575 72.4271 58.597 71.7664 58.597H64.2926V56.1244H79.2401C82.5425 56.1205 85.7085 54.8168 88.0437 52.4992C90.3788 50.1816 91.6925 47.0394 91.6964 43.7618V28.9267C91.6925 25.6491 90.3788 22.5069 88.0437 20.1893C85.7085 17.8717 82.5425 16.568 79.2401 16.564ZM86.7139 43.7618C86.7139 45.7291 85.9265 47.6158 84.5249 49.0068C83.1233 50.3979 81.2223 51.1794 79.2401 51.1794H44.3625C42.3804 51.1794 40.4794 50.3979 39.0778 49.0068C37.6762 47.6158 36.8888 45.7291 36.8888 43.7618V28.9267C36.8888 26.9594 37.6762 25.0727 39.0778 23.6816C40.4794 22.2906 42.3804 21.5091 44.3625 21.5091H79.2401C81.2223 21.5091 83.1233 22.2906 84.5249 23.6816C85.9265 25.0727 86.7139 26.9594 86.7139 28.9267V43.7618Z" fill="black"/>
</svg>
